<?xml version="1.0" encoding="utf-8"?>
<!-- Generator: Adobe Illustrator 24.1.1, SVG Export Plug-In . SVG Version: 6.00 Build 0)  -->
<svg version="1.1" id="Layer_1" xmlns="http://www.w3.org/2000/svg" xmlns:xlink="http://www.w3.org/1999/xlink" x="0px" y="0px"
	 viewBox="0 0 512 512" style="enable-background:new 0 0 512 512;" xml:space="preserve">
<style type="text/css">
	.st0{fill:#C2D5D8;}
	.st1{fill:#FFFFFF;}
	.st2{fill:#CC584C;}
	.st3{clip-path:url(#SVGID_2_);fill:#91D2F2;}
	.st4{clip-path:url(#SVGID_4_);fill:#8AC7E6;}
	.st5{clip-path:url(#SVGID_6_);fill:#F5F5F5;}
	.st6{clip-path:url(#SVGID_8_);fill:#E6CBC3;}
	.st7{clip-path:url(#SVGID_10_);fill:#D9BFB8;}
	.st8{clip-path:url(#SVGID_12_);fill:#FFE1D9;}
	.st9{clip-path:url(#SVGID_14_);fill:#F2D6CE;}
	.st10{clip-path:url(#SVGID_16_);fill:#242424;}
	.st11{clip-path:url(#SVGID_18_);fill:#1A1A1A;}
	.st12{fill:#F5F5F5;}
	.st13{fill:#242424;}
</style>
<g id="XMLID_1_">
	<circle id="XMLID_3_" class="st0" cx="256" cy="256" r="256"/>
	<circle id="XMLID_4_" class="st1" cx="444.3" cy="67.7" r="67.7"/>
	<circle id="XMLID_5_" class="st2" cx="444.3" cy="67.7" r="56.7"/>
	<g id="XMLID_8_">
		<g>
			<defs>
				<circle id="SVGID_1_" cx="256" cy="256" r="256"/>
			</defs>
			<clipPath id="SVGID_2_">
				<use xlink:href="#SVGID_1_"  style="overflow:visible;"/>
			</clipPath>
			<path id="XMLID_9_" class="st3" d="M439.5,471.8c-18.1-92.2-156-83.5-187.5-83.5s-169.4-7.9-187.5,84.3s73.3,123.7,73.3,123.7
				h114.2h114.2C366.3,596.3,457.6,564,439.5,471.8z"/>
		</g>
		<g>
			<defs>
				<circle id="SVGID_3_" cx="256" cy="256" r="256"/>
			</defs>
			<clipPath id="SVGID_4_">
				<use xlink:href="#SVGID_3_"  style="overflow:visible;"/>
			</clipPath>
			<path id="XMLID_10_" class="st4" d="M439.5,471.8c-17.3-85.9-137.1-84.3-179.6-84.3c52,0.8,142.6,10.2,157.5,84.3
				c18.1,92.2-73.3,123.7-73.3,123.7h22.1C366.3,596.3,457.6,564,439.5,471.8z"/>
		</g>
		<g>
			<defs>
				<circle id="SVGID_5_" cx="256" cy="256" r="256"/>
			</defs>
			<clipPath id="SVGID_6_">
				<use xlink:href="#SVGID_5_"  style="overflow:visible;"/>
			</clipPath>
			<ellipse id="XMLID_11_" class="st5" cx="252.1" cy="393.8" rx="55.9" ry="22.1"/>
		</g>
		<g>
			<defs>
				<circle id="SVGID_7_" cx="256" cy="256" r="256"/>
			</defs>
			<clipPath id="SVGID_8_">
				<use xlink:href="#SVGID_7_"  style="overflow:visible;"/>
			</clipPath>
			<path id="XMLID_12_" class="st6" d="M301.7,382L301.7,382l-14.2-42.5l-36.2-2.4l-36.2,2.4L202.4,382l0,0c0,0.8,0,0.8,0,1.6
				c0,8.7,22.1,15.8,49.6,15.8s49.6-7.1,49.6-15.8C301.7,383.6,301.7,382.8,301.7,382z"/>
		</g>
		<g>
			<defs>
				<circle id="SVGID_9_" cx="256" cy="256" r="256"/>
			</defs>
			<clipPath id="SVGID_10_">
				<use xlink:href="#SVGID_9_"  style="overflow:visible;"/>
			</clipPath>
			<path id="XMLID_13_" class="st7" d="M301.7,382L301.7,382l-14.2-42.5l-36.2-2.4l-7.1,0.8l29.1,2.4l14.2,41.7l0,0
				c0,0.8,0,0.8,0,1.6c0,7.9-18.9,15-43.3,15.8c2.4,0,4.7,0,7.1,0c27.6,0,49.6-7.1,49.6-15.8C301.7,383.6,301.7,382.8,301.7,382z"/>
		</g>
		<g>
			<defs>
				<circle id="SVGID_11_" cx="256" cy="256" r="256"/>
			</defs>
			<clipPath id="SVGID_12_">
				<use xlink:href="#SVGID_11_"  style="overflow:visible;"/>
			</clipPath>
			<path id="XMLID_14_" class="st8" d="M356,167.8V126c0-32.3-22.8-58.3-104-58.3s-104,26-104,58.3v41.7c0,0-15.8,0.8-15.8,11.8
				v44.9c0,11,3.9,19.7,15.8,19.7c0,54.4,48,115.8,104,115.8s104-62.2,104-115.8c11.8,0,15.8-8.7,15.8-19.7v-44.1
				C371.8,169.4,356,167.8,356,167.8z"/>
		</g>
		<g>
			<defs>
				<circle id="SVGID_13_" cx="256" cy="256" r="256"/>
			</defs>
			<clipPath id="SVGID_14_">
				<use xlink:href="#SVGID_13_"  style="overflow:visible;"/>
			</clipPath>
			<path id="XMLID_15_" class="st9" d="M252.1,67.7c-2.4,0-3.9,0-6.3,0c76.4,1.6,97.7,26.8,97.7,58.3v41.7v75.6
				c0,52-44.9,111.9-97.7,115.8c2.4,0,3.9,0,6.3,0c55.9,0,104-62.2,104-115.8v-75.6V126C356,93.7,332.4,67.7,252.1,67.7z"/>
		</g>
		<g>
			<defs>
				<circle id="SVGID_15_" cx="256" cy="256" r="256"/>
			</defs>
			<clipPath id="SVGID_16_">
				<use xlink:href="#SVGID_15_"  style="overflow:visible;"/>
			</clipPath>
			<path id="XMLID_16_" class="st10" d="M252.1,67.7c-81.1,0-104,26-104,58.3v41.7v44.1c3.9-18.9,14.2-71.7,37.8-88.2
				c18.9,5.5,41.7,8.7,66.2,8.7c24.4,0,47.3-3.2,66.2-8.7c23.6,17.3,34.7,70.1,37.8,88.2v-44.1V126C356,93.7,332.4,67.7,252.1,67.7z
				"/>
		</g>
		<g>
			<defs>
				<circle id="SVGID_17_" cx="256" cy="256" r="256"/>
			</defs>
			<clipPath id="SVGID_18_">
				<use xlink:href="#SVGID_17_"  style="overflow:visible;"/>
			</clipPath>
			<path id="XMLID_17_" class="st11" d="M252.1,67.7c-2.4,0-3.9,0-6.3,0c76.4,1.6,97.7,26.8,97.7,58.3v39.4
				c6.3,18.1,10.2,37,11.8,46.5v-44.1V126C356,93.7,332.4,67.7,252.1,67.7z"/>
		</g>
	</g>
	<path id="XMLID_6_" class="st12" d="M443.5,98.5c-4.7,0-7.9-3.9-7.9-7.9V44.9c0-4.7,3.9-7.9,7.9-7.9c4.7,0,7.9,3.9,7.9,7.9v45.7
		C451.3,95.3,448.2,98.5,443.5,98.5z"/>
	<path id="XMLID_18_" class="st12" d="M466.3,75.6h-44.9c-4.7,0-7.9-3.9-7.9-7.9s3.9-7.9,7.9-7.9h45.7c4.7,0,7.9,3.9,7.9,7.9
		S471,75.6,466.3,75.6z"/>
	<ellipse id="XMLID_19_" class="st12" cx="219.8" cy="204" rx="15.8" ry="11.8"/>
	<circle id="XMLID_20_" class="st13" cx="219.8" cy="204" r="7.9"/>
	<ellipse id="XMLID_21_" class="st12" cx="292.2" cy="204" rx="15.8" ry="11.8"/>
	<circle id="XMLID_22_" class="st13" cx="292.2" cy="204" r="7.9"/>
</g>
</svg>
