<?xml version="1.0" standalone="no"?>
<!DOCTYPE svg PUBLIC "-//W3C//DTD SVG 20010904//EN"
 "http://www.w3.org/TR/2001/REC-SVG-20010904/DTD/svg10.dtd">
<svg version="1.0" xmlns="http://www.w3.org/2000/svg"
 width="2880.000000pt" height="1460.000000pt" viewBox="0 0 2880.000000 1460.000000"
 preserveAspectRatio="xMidYMid meet">
<metadata>
Created by potrace 1.16, written by Peter Selinger 2001-2019
</metadata>
<g transform="translate(0.000000,1460.000000) scale(0.100000,-0.100000)"
fill="#000000" stroke="none">
<path d="M0 7300 l0 -7300 14400 0 14400 0 0 7300 0 7300 -14400 0 -14400 0 0
-7300z m26584 6229 c28 -66 -17 -299 -57 -299 -46 0 -74 105 -54 203 27 125
79 171 111 96z m-24154 -383 c19 -151 36 -274 37 -272 2 2 63 526 63 542 0 2
25 4 55 4 30 0 55 -4 55 -10 0 -5 -4 -10 -10 -10 -6 0 -10 -123 -10 -350 0
-227 4 -350 10 -350 6 0 10 -4 10 -10 0 -6 -28 -10 -65 -10 -36 0 -65 4 -65 9
0 5 5 11 10 13 7 2 9 78 8 218 l-3 215 -25 -225 -25 -225 -36 -3 -35 -3 -29
218 c-15 120 -32 227 -36 238 -4 11 -8 -82 -8 -207 -1 -196 1 -228 14 -228 8
0 15 -4 15 -10 0 -5 -18 -10 -40 -10 -22 0 -40 5 -40 10 0 6 7 10 15 10 13 0
15 46 15 350 0 304 -2 350 -15 350 -8 0 -15 5 -15 10 0 6 26 10 58 10 l58 0
34 -274z m510 164 l0 -110 -40 0 -40 0 0 100 0 100 -35 0 -35 0 0 -160 0 -160
50 0 c28 0 50 -4 50 -10 0 -5 -22 -10 -50 -10 l-50 0 0 -180 0 -180 35 0 35 0
0 100 0 100 40 0 40 0 0 -110 0 -110 -130 0 c-80 0 -130 4 -130 10 0 6 5 10
10 10 6 0 10 123 10 350 0 227 -4 350 -10 350 -5 0 -10 5 -10 10 0 6 50 10
130 10 l130 0 0 -110z m207 -125 c28 -126 54 -237 56 -245 3 -8 5 92 6 223 1
204 -1 237 -14 237 -8 0 -15 5 -15 10 0 6 18 10 40 10 22 0 40 -4 40 -10 0 -5
-4 -10 -10 -10 -6 0 -10 -127 -10 -360 l0 -360 -38 0 -37 0 -60 273 -60 272
-3 -259 c-2 -237 -1 -260 15 -272 16 -12 12 -13 -32 -13 -44 0 -48 1 -32 13
16 12 17 41 17 356 0 315 -1 344 -17 356 -16 12 -10 14 42 12 l60 -3 52 -230z
m283 225 c0 -5 -7 -10 -15 -10 -13 0 -15 -44 -15 -339 0 -295 2 -342 16 -355
19 -19 36 -20 52 -4 16 16 17 698 2 698 -5 0 -10 5 -10 10 0 6 30 10 70 10 40
0 70 -4 70 -10 0 -5 -7 -10 -15 -10 -13 0 -15 -43 -15 -326 l0 -326 -33 -33
c-59 -59 -153 -55 -201 8 -20 27 -21 41 -24 353 -2 198 -7 324 -12 324 -6 0
-10 5 -10 10 0 6 30 10 70 10 40 0 70 -4 70 -10z m1820 0 c23 -12 44 -73 36
-106 -4 -13 -15 -33 -26 -44 -19 -19 -19 -20 5 -44 22 -22 25 -34 25 -91 0
-50 3 -65 13 -60 6 4 3 -1 -7 -9 -25 -20 -31 -20 -50 0 -12 11 -16 36 -16 95
0 46 -4 79 -10 79 -6 0 -10 -37 -10 -90 l0 -90 -32 0 -33 0 0 185 0 185 43 0
c24 0 52 -4 62 -10z m239 -62 l-1 -73 -15 55 c-16 60 -28 80 -49 80 -11 0 -14
-20 -14 -86 0 -63 3 -85 12 -82 7 3 15 15 19 29 5 15 7 2 7 -36 0 -38 -2 -51
-7 -36 -4 14 -12 26 -19 29 -9 3 -12 -19 -12 -82 0 -66 3 -86 14 -86 22 0 35
22 50 86 l14 59 1 -77 1 -78 -67 0 -68 0 3 177 c2 136 0 178 -10 184 -7 5 20
9 65 9 l77 0 -1 -72z m150 -3 l0 -70 -17 65 c-14 53 -21 65 -37 65 -34 0 -29
-40 19 -143 55 -118 60 -169 20 -201 -20 -16 -31 -18 -51 -10 -15 5 -32 8 -40
5 -10 -4 -13 12 -12 72 l1 77 13 -62 c16 -75 21 -83 45 -83 41 0 33 60 -25
182 -38 79 -43 122 -19 156 12 18 23 22 60 20 l44 -3 -1 -70z m200 -2 l-1 -78
-12 63 c-7 34 -18 68 -25 75 -9 9 -11 -28 -9 -171 l3 -182 -40 1 c-22 0 -34 3
-27 6 16 6 18 353 2 353 -13 0 -17 -10 -34 -90 l-14 -65 -1 83 -1 82 80 0 80
0 -1 -77z m105 50 c3 -16 12 -89 21 -163 9 -74 18 -145 21 -157 4 -20 0 -23
-26 -23 -28 0 -30 3 -30 35 0 31 -3 35 -25 35 -22 0 -25 4 -24 33 2 30 2 30 6
5 3 -19 10 -28 22 -28 16 0 17 7 14 53 -3 28 -9 67 -14 86 -11 46 0 151 17
151 7 0 15 -12 18 -27z m158 -155 c-2 -140 0 -183 10 -189 9 -6 7 -9 -8 -9
-11 0 -29 6 -40 14 -17 13 -19 31 -24 190 l-5 176 35 0 35 0 -3 -182z m233
157 c34 -33 34 -93 1 -131 l-23 -28 23 -19 c21 -16 24 -27 24 -88 0 -44 4 -68
10 -64 6 3 10 16 10 27 0 12 3 19 6 15 12 -12 -6 -56 -27 -62 -36 -12 -48 11
-51 98 -2 56 -7 82 -16 85 -11 3 -13 -15 -10 -87 l3 -91 -30 0 -30 0 3 177 c2
136 0 178 -10 184 -8 5 8 9 40 9 43 0 58 -5 77 -25z m175 15 c0 -27 42 -345
46 -352 3 -4 -11 -8 -31 -8 -23 0 -34 4 -30 11 4 5 4 21 1 35 -8 31 -43 33
-49 2 -3 -18 -5 -15 -6 8 -1 28 1 31 24 26 29 -5 29 -3 18 99 -5 51 -8 59 -15
39 -5 -16 -6 -7 -2 25 10 100 16 125 30 125 8 0 14 -5 14 -10z m154 -7 c2 -10
13 -63 23 -118 l18 -100 3 104 c2 67 -1 108 -9 117 -9 11 -8 14 7 14 18 0 19
-10 16 -186 -3 -184 -3 -185 -25 -182 -19 3 -24 16 -47 143 l-25 140 -3 -134
c-2 -101 1 -136 10 -143 9 -5 7 -8 -7 -8 -19 0 -20 6 -17 177 2 136 0 178 -10
184 -8 6 1 9 24 9 26 0 38 -5 42 -17z m265 -65 c-1 -76 -2 -80 -11 -43 -5 22
-14 57 -19 78 -20 78 -29 35 -29 -137 0 -130 3 -176 13 -179 6 -3 -10 -5 -38
-5 -27 0 -44 2 -37 5 9 3 12 49 12 181 0 135 -3 173 -12 164 -6 -6 -17 -38
-24 -69 l-12 -58 -1 73 -1 72 80 0 80 0 -1 -82z m19357 25 c28 -42 35 -96 29
-208 -8 -121 6 -169 72 -252 29 -37 53 -73 53 -80 0 -22 -26 -66 -51 -87 -60
-50 -134 -89 -95 -50 19 19 21 44 3 44 -7 0 -26 -14 -43 -31 -30 -32 -231
-139 -260 -139 -14 0 -16 9 -12 58 6 83 37 140 100 182 72 48 98 77 98 105 0
33 -11 31 -72 -9 -52 -36 -78 -37 -78 -5 0 14 7 19 29 19 41 0 96 54 110 107
7 26 9 80 5 144 -7 122 0 179 28 214 26 34 56 30 84 -12z m-1414 -76 c91 -55
266 -188 270 -205 6 -21 16 -21 -157 7 -33 6 -79 13 -102 17 -24 3 -43 9 -43
12 0 8 79 6 174 -2 33 -3 55 -1 50 3 -15 14 -198 156 -214 166 -8 5 -46 12
-85 16 l-70 6 70 1 c56 1 77 -3 107 -21z m-10818 2 c31 -14 56 -65 56 -112 0
-34 -39 -97 -61 -97 -4 0 -10 46 -11 102 -2 70 -7 103 -15 106 -10 3 -13 -22
-13 -101 0 -104 0 -105 26 -111 14 -4 37 -18 50 -31 21 -21 24 -33 24 -105 0
-82 10 -101 29 -52 l11 27 -5 -30 c-9 -47 -49 -68 -85 -45 -11 7 -16 36 -20
116 -4 76 -9 109 -18 112 -11 3 -13 -20 -10 -112 l3 -116 -40 0 -40 0 0 230 0
230 47 0 c26 0 58 -5 72 -11z m303 -79 c2 -88 -5 -87 -26 5 -14 57 -32 81 -55
72 -22 -9 -24 -207 -2 -207 8 0 19 12 24 28 9 22 10 15 10 -43 0 -60 -1 -65
-9 -37 -5 17 -16 32 -24 32 -12 0 -15 -19 -15 -105 0 -98 1 -105 20 -105 24 0
39 27 61 110 l17 65 1 -92 1 -93 -92 1 c-51 0 -87 3 -80 6 9 3 12 58 12 223 0
165 -3 220 -12 224 -7 2 28 4 77 3 l90 -2 2 -85z m141 78 c9 -9 15 -9 24 0 23
23 28 11 28 -75 -1 -94 -9 -94 -29 -1 -13 60 -31 84 -56 74 -27 -10 -16 -67
37 -180 58 -125 70 -191 44 -231 -26 -40 -60 -51 -91 -31 -21 14 -29 15 -41 5
-12 -10 -14 2 -13 82 l1 94 13 -67 c17 -86 30 -110 58 -106 48 7 36 86 -33
230 -46 95 -52 150 -19 192 22 27 57 34 77 14z m302 -90 c0 -56 -2 -99 -5 -97
-2 3 -11 41 -20 84 -8 44 -22 86 -30 94 -13 14 -15 -9 -15 -206 0 -168 3 -223
13 -226 6 -3 -15 -5 -48 -5 -33 0 -52 2 -42 5 15 4 17 23 17 218 0 124 -4 216
-9 220 -15 9 -30 -27 -45 -112 l-14 -78 -1 103 -1 102 100 0 100 0 0 -102z
m123 65 c3 -21 16 -121 28 -223 12 -102 27 -188 33 -192 6 -4 -11 -8 -37 -8
-32 0 -46 4 -42 11 4 6 4 26 1 45 -6 27 -12 34 -31 34 -14 0 -25 -7 -28 -17
-3 -10 -5 0 -5 22 0 22 2 32 5 23 3 -11 14 -18 29 -18 l25 0 -7 83 c-4 45 -11
93 -16 106 -8 23 -3 111 8 154 9 31 31 18 37 -20z m199 29 c-9 -7 -12 -59 -10
-228 3 -193 5 -219 19 -222 9 -2 24 4 33 13 14 14 16 46 16 219 0 144 -3 205
-12 214 -9 9 -6 12 15 12 24 0 26 -2 17 -19 -6 -12 -10 -100 -10 -215 0 -183
-1 -197 -20 -216 -24 -24 -67 -26 -98 -4 -22 15 -22 20 -22 223 0 148 -3 210
-12 219 -9 9 0 12 43 12 31 0 49 -4 41 -8z m280 -21 c30 -26 33 -35 33 -84 0
-45 -5 -60 -24 -81 -14 -14 -28 -26 -32 -26 -5 0 -10 46 -11 102 -2 70 -7 103
-15 106 -10 3 -13 -21 -13 -100 l0 -103 40 -17 c49 -20 60 -46 60 -139 0 -72
11 -88 28 -41 6 15 11 21 11 14 2 -32 -31 -72 -59 -72 -38 0 -45 17 -50 126
-4 76 -9 109 -18 112 -11 3 -13 -20 -10 -112 l3 -116 -50 1 c-27 0 -44 3 -37
6 9 3 12 58 12 223 0 165 -3 220 -12 223 -7 3 15 6 49 6 56 1 66 -2 95 -28z
m221 -8 c3 -21 16 -121 28 -223 12 -102 27 -188 33 -192 6 -4 -11 -8 -37 -8
-32 0 -46 4 -42 11 4 6 4 26 1 45 -6 27 -12 34 -31 34 -13 0 -26 -6 -28 -12
-3 -7 -5 3 -5 22 0 19 2 27 5 18 3 -11 14 -18 29 -18 25 0 25 0 19 73 -4 39
-11 89 -16 110 -9 33 -3 150 8 170 11 20 31 3 36 -30z m215 -115 l30 -153 1
141 c1 97 -3 144 -11 152 -9 9 -6 12 17 12 23 0 26 -3 17 -12 -9 -9 -12 -74
-12 -230 l0 -218 -25 0 c-14 0 -25 1 -25 3 0 1 -16 85 -36 187 -20 102 -38
199 -41 215 -3 17 -10 36 -15 43 -8 9 -1 12 30 12 l40 0 30 -152z m301 50 l-1
-103 -19 85 c-10 46 -26 91 -34 99 -13 14 -15 -9 -15 -206 0 -168 3 -223 13
-226 6 -3 -15 -5 -48 -5 -33 0 -52 2 -42 5 15 4 17 23 17 223 0 188 -2 219
-15 214 -8 -3 -20 -35 -29 -77 -8 -40 -17 -81 -19 -92 -3 -11 -5 26 -6 83 l-1
102 100 0 100 0 -1 -102z m-6525 65 c3 -16 19 -138 36 -273 27 -212 40 -290
40 -239 0 23 50 493 56 517 4 20 10 22 59 22 30 0 55 -4 55 -10 0 -5 -4 -10
-10 -10 -6 0 -10 -125 -10 -355 0 -230 4 -355 10 -355 6 0 10 -4 10 -10 0 -6
-28 -10 -64 -10 -36 0 -68 5 -71 10 -3 6 1 10 9 10 14 0 16 28 15 233 -1 127
-3 225 -5 217 -2 -8 -13 -98 -24 -200 -32 -290 -27 -270 -65 -270 l-33 0 -10
73 c-6 39 -21 149 -34 242 l-23 170 -3 -225 c-2 -191 0 -227 13 -236 8 -6 12
-14 8 -17 -10 -11 -73 -8 -73 3 0 6 5 10 10 10 6 0 10 125 10 355 0 230 -4
355 -10 355 -5 0 -10 5 -10 10 0 6 24 10 54 10 51 0 55 -2 60 -27z m546 -83
l0 -110 -45 0 -45 0 0 100 0 100 -30 0 -30 0 0 -160 0 -160 50 0 c28 0 50 -4
50 -10 0 -5 -22 -10 -50 -10 l-50 0 0 -185 0 -185 30 0 30 0 0 105 0 105 45 0
45 0 0 -115 0 -115 -129 0 c-76 0 -132 4 -136 10 -3 6 1 10 9 10 14 0 16 40
16 355 0 309 -2 355 -15 355 -8 0 -15 5 -15 10 0 6 52 10 135 10 l135 0 0
-110z m154 93 c2 -10 26 -116 53 -236 l48 -218 3 223 c1 145 -1 224 -8 226
-25 9 -6 22 30 22 22 0 40 -4 40 -10 0 -5 -7 -10 -15 -10 -13 0 -15 -47 -15
-365 l0 -365 -29 0 c-17 0 -32 4 -36 9 -3 6 -32 128 -65 273 l-59 263 0 -262
c-1 -169 3 -263 9 -263 6 0 10 -4 10 -10 0 -5 -18 -10 -40 -10 -40 0 -53 13
-25 24 13 5 15 54 15 356 0 304 -2 350 -15 350 -8 0 -15 5 -15 10 0 6 24 10
54 10 44 0 56 -4 60 -17z m326 7 c0 -5 -5 -10 -10 -10 -7 0 -9 -117 -8 -346 3
-318 4 -348 21 -358 12 -8 22 -8 35 0 16 10 17 40 20 358 2 303 0 346 -13 346
-8 0 -15 5 -15 10 0 6 30 10 70 10 40 0 70 -4 70 -10 0 -5 -4 -10 -10 -10 -6
0 -10 -127 -12 -330 l-3 -330 -31 -31 c-40 -40 -104 -50 -158 -24 -65 31 -66
37 -66 395 0 278 -2 320 -15 320 -8 0 -15 5 -15 10 0 6 30 10 70 10 40 0 70
-4 70 -10z m11755 -265 c28 -2 199 -5 380 -8 l330 -4 14 -28 c21 -43 29 -195
20 -355 -11 -187 -25 -291 -39 -300 -26 -16 -414 -20 -940 -9 -395 8 -782 9
-1285 3 -731 -9 -1688 -5 -1700 8 -22 22 -12 631 11 691 5 13 184 14 1582 10
867 -3 1600 -6 1627 -8z m2730 6 c17 -3 30 -13 31 -21 0 -8 4 -23 9 -33 10
-25 7 -26 -50 -17 -68 12 -188 12 -181 1 10 -16 138 -62 188 -68 26 -3 45 -10
42 -14 -3 -5 2 -12 11 -15 19 -8 80 -66 78 -75 -2 -8 135 -28 178 -27 40 2 89
-24 89 -47 0 -9 -16 -16 -47 -20 -108 -15 -302 -80 -328 -109 -5 -7 -18 -10
-28 -8 -18 4 -17 5 2 18 13 9 21 26 21 42 0 21 10 34 43 56 29 19 34 26 17 21
-41 -12 -16 4 31 20 43 14 42 15 -61 10 -159 -7 -164 -9 -221 -79 -27 -33 -63
-89 -79 -123 -17 -35 -32 -63 -34 -63 -3 0 -4 35 -3 79 2 76 16 93 18 21 1
-34 1 -34 10 -9 7 18 5 36 -6 62 -8 20 -18 37 -21 37 -3 0 -18 -8 -32 -18 -37
-25 -62 -37 -37 -18 11 9 27 22 35 29 9 7 24 16 33 20 10 4 17 18 18 34 1 23
2 25 7 8 7 -20 10 -19 79 17 40 20 69 39 65 42 -4 2 -29 7 -55 11 -26 4 -46 9
-44 12 3 2 42 -1 88 -7 86 -12 243 -4 204 10 -40 14 -205 33 -249 28 -47 -6
-71 -22 -79 -54 -3 -14 -5 -12 -6 8 -2 44 45 63 152 62 l88 -1 -63 27 c-35 14
-85 41 -113 58 -48 32 -52 32 -140 28 l-90 -5 73 10 c76 11 93 34 18 27 -22
-3 -33 -3 -23 -1 9 3 17 8 17 12 0 4 21 7 48 7 110 0 167 5 147 14 -24 10 103
11 150 1z m636 -29 c89 -39 164 -125 199 -226 19 -57 14 -76 -22 -76 -17 0
-22 10 -19 37 1 6 -3 14 -8 18 -6 3 -8 12 -4 20 3 8 0 15 -7 15 -6 0 -8 5 -4
12 4 7 3 8 -4 4 -8 -5 -10 3 -6 26 4 24 3 29 -5 18 -8 -12 -11 -12 -17 3 -5
13 -10 15 -19 7 -9 -8 -13 -7 -12 2 1 32 -4 49 -12 43 -6 -3 -13 1 -18 8 -9
16 -73 51 -73 41 0 -4 -6 -2 -13 5 -10 8 -17 7 -25 -1 -9 -9 -12 -1 -12 35 0
42 2 46 18 38 9 -4 38 -18 63 -29z m-7071 -397 l0 -395 -125 0 -125 0 0 255 0
255 -210 0 -210 0 0 -190 0 -190 -125 0 -125 0 -2 188 -3 187 -367 3 -368 2 0
140 0 140 830 0 830 0 0 -395z m6000 204 c42 -13 131 -76 138 -99 3 -8 -16 5
-43 28 -69 60 -149 82 -247 66 -25 -5 -40 -13 -44 -27 -4 -14 -8 -16 -14 -7
-13 21 -87 -28 -120 -79 -17 -24 -30 -49 -30 -54 0 -6 -2 -8 -5 -5 -3 3 2 22
10 43 9 20 14 40 10 43 -3 3 -32 8 -64 10 -158 11 -296 -110 -312 -272 l-6
-71 -2 59 c-1 76 13 123 58 182 68 90 205 136 313 106 33 -9 39 -7 60 15 67
72 183 96 298 62z m1944 -122 c-15 -26 -47 -56 -55 -51 -5 3 -9 1 -9 -4 0 -5
-12 -15 -27 -22 -37 -17 -211 -63 -245 -64 -14 -1 -24 -4 -22 -7 5 -8 -25 -21
-34 -15 -4 2 -13 -2 -20 -10 -10 -11 -7 -16 17 -29 64 -32 82 -111 37 -156
-21 -22 -24 -36 -29 -143 -6 -113 -8 -122 -37 -162 -72 -100 -130 -273 -130
-384 0 -52 -63 -154 -154 -248 -138 -145 -290 -216 -551 -258 -145 -23 -404
-23 -534 0 -500 90 -803 393 -878 881 -18 121 -14 281 9 314 15 21 16 21 43
-33 56 -110 148 -142 313 -110 23 5 38 2 51 -10 9 -9 32 -19 50 -22 18 -4 39
-17 47 -30 19 -29 36 -36 109 -45 33 -4 81 -11 106 -14 40 -6 50 -4 68 14 28
28 27 66 -5 98 -18 18 -22 29 -15 36 29 29 1 90 -53 117 -23 11 -32 19 -21 18
12 -2 40 6 64 16 35 16 41 23 36 40 -20 72 -16 80 14 26 34 -61 94 -120 122
-120 10 0 21 -5 24 -10 4 -6 14 -10 23 -9 25 2 62 -12 62 -23 0 -5 -5 -6 -12
-2 -7 4 -8 3 -4 -4 4 -7 13 -12 20 -12 14 0 28 -29 31 -67 2 -19 -2 -21 -42
-18 -57 5 -78 -2 -62 -21 6 -8 8 -14 3 -14 -5 0 -15 -4 -23 -9 -11 -7 -10 -13
5 -30 18 -19 23 -19 59 -7 30 11 43 23 58 55 10 22 25 41 33 41 7 0 19 9 27
20 11 16 19 19 38 12 13 -5 29 -7 35 -5 7 2 10 -5 7 -19 -4 -20 3 -27 44 -47
28 -14 75 -26 113 -29 35 -3 77 -13 93 -22 33 -20 82 -13 148 20 22 12 49 18
61 15 18 -4 37 9 92 65 38 38 74 70 79 70 5 0 15 7 21 16 10 14 14 13 29 -4
18 -19 17 -20 -12 -33 -17 -8 -31 -17 -31 -22 0 -4 13 -1 29 7 31 16 41 13 41
-15 0 -29 41 -50 80 -42 l33 6 -23 19 c-18 14 -21 21 -11 27 18 11 -14 35 -39
28 -34 -9 -44 17 -26 63 20 50 20 64 1 56 -8 -3 -15 -1 -15 4 0 13 27 13 34 1
3 -5 32 -8 63 -6 56 2 57 3 69 39 7 20 11 36 8 36 -13 0 30 62 58 84 35 25
112 51 127 41 5 -3 11 0 13 7 4 12 23 18 84 23 22 2 67 13 100 25 32 11 63 22
69 23 5 1 14 6 20 10 5 5 28 19 50 31 41 23 61 24 49 3z m-1257 -103 c13 -8
30 -25 38 -38 13 -20 27 -25 90 -31 41 -4 75 -10 75 -15 0 -4 -11 -15 -25 -24
-14 -9 -37 -36 -52 -59 -35 -53 -40 -57 -85 -57 -26 0 -38 -4 -38 -14 0 -21
-12 -26 -83 -35 l-62 -8 52 -2 c41 -1 55 -5 63 -20 12 -24 13 -42 1 -22 -9 14
-177 45 -192 35 -4 -2 -10 0 -14 6 -3 5 -19 10 -35 10 -16 0 -36 7 -44 16 -9
8 -22 14 -29 11 -22 -8 -81 23 -124 65 -39 38 -42 45 -38 82 3 22 6 41 8 42 7
7 122 15 208 14 92 -1 97 0 154 34 61 37 85 39 132 10z m1517 -400 c94 -24
174 -71 253 -150 317 -313 170 -843 -263 -954 -192 -49 -381 1 -529 141 -117
112 -176 245 -177 403 -1 102 14 170 57 261 91 191 288 314 504 315 53 0 119
-7 155 -16z m-24354 -139 l0 -115 -40 0 -39 0 -3 103 -3 102 -30 0 -30 0 -3
-157 -3 -157 46 -3 c59 -4 59 -22 0 -26 l-45 -3 0 -180 c0 -152 2 -179 15
-179 8 0 15 -4 15 -10 0 -6 -30 -10 -70 -10 -40 0 -70 4 -70 10 0 6 7 10 15
10 13 0 15 46 15 350 0 302 -2 351 -15 356 -41 16 -3 24 115 24 l130 0 0 -115z
m273 76 l32 -31 3 -283 c2 -187 0 -295 -8 -320 -15 -51 -58 -77 -129 -77 -47
0 -57 4 -87 34 l-34 34 0 302 c0 194 4 308 11 321 35 67 154 78 212 20z m317
4 l30 -29 0 -310 c-1 -229 -4 -315 -13 -326 -27 -35 -62 -50 -115 -50 -48 0
-58 4 -88 34 l-34 34 0 302 c0 194 4 308 11 321 34 65 153 78 209 24z m272 25
c20 -6 48 -24 62 -41 l26 -31 0 -292 c0 -282 -1 -294 -21 -320 -35 -44 -70
-56 -169 -56 -53 0 -90 4 -90 10 0 6 7 10 15 10 13 0 15 46 15 350 0 302 -2
351 -15 356 -8 4 -15 10 -15 15 0 12 146 11 192 -1z m6594 -136 c65 -31 64
-27 64 -362 0 -340 1 -338 -72 -367 -54 -21 -108 -12 -148 25 l-30 28 0 309
c0 341 0 341 64 369 42 18 81 17 122 -2z m309 6 c14 -5 37 -22 50 -36 l25 -27
0 -303 0 -302 -25 -31 c-50 -59 -139 -64 -195 -11 l-30 28 0 309 c0 269 2 312
16 332 31 43 104 62 159 41z m-545 -110 l0 -110 -45 0 -45 0 0 100 0 100 -30
0 -30 0 0 -160 0 -160 51 0 c31 0 48 -4 44 -10 -3 -5 -26 -10 -51 -10 l-44 0
0 -180 c0 -153 2 -180 15 -180 8 0 15 -4 15 -10 0 -6 -30 -10 -70 -10 -40 0
-70 4 -70 10 0 6 5 10 10 10 6 0 10 123 10 350 0 227 -4 350 -10 350 -5 0 -10
5 -10 10 0 6 50 10 130 10 l130 0 0 -110z m891 93 c57 -34 60 -54 57 -368 l-3
-285 -33 -32 c-32 -32 -34 -33 -137 -36 -71 -3 -105 0 -105 7 0 6 5 11 10 11
6 0 10 123 10 350 0 227 -4 350 -10 350 -5 0 -10 5 -10 10 0 6 39 10 96 10 72
0 103 -4 125 -17z m7830 -99 c158 -75 229 -199 229 -401 0 -227 -111 -380
-308 -422 -35 -7 -219 -11 -545 -11 -412 0 -503 3 -552 15 -177 46 -280 182
-293 386 -11 198 62 349 208 424 82 42 102 44 660 42 l535 -2 66 -31z m3377
19 c-500 -2 -1316 -2 -1815 0 -500 1 -91 2 907 2 998 0 1407 -1 908 -2z m-778
-163 c0 -7 -330 -10 -970 -10 -640 0 -970 3 -970 10 0 7 330 10 970 10 640 0
970 -3 970 -10z m-1383 -171 c8 -8 13 -8 17 0 11 18 86 14 86 -4 0 -8 -7 -15
-15 -15 -12 0 -15 -15 -15 -75 0 -60 -3 -75 -15 -75 -12 0 -15 15 -15 75 0 61
-3 75 -16 75 -8 0 -13 -4 -9 -9 3 -5 0 -13 -6 -17 -6 -4 -16 1 -21 10 -18 31
-28 15 -28 -44 0 -47 3 -60 15 -60 8 0 15 5 15 10 0 6 7 10 15 10 18 0 18 -5
5 -31 -12 -21 -50 -25 -68 -7 -18 18 -15 133 4 152 18 19 36 20 51 5z m3063
-299 c0 -7 -610 -10 -1810 -10 -1200 0 -1810 3 -1810 10 0 7 610 10 1810 10
1200 0 1810 -3 1810 -10z m-1680 -160 c0 -7 -330 -10 -970 -10 -640 0 -970 3
-970 10 0 7 330 10 970 10 640 0 970 -3 970 -10z m-1384 -131 c4 -8 9 -8 17 0
17 17 87 14 87 -4 0 -8 -7 -15 -15 -15 -12 0 -15 -15 -15 -75 0 -60 -3 -75
-15 -75 -12 0 -15 15 -15 75 0 61 -3 75 -16 75 -8 0 -13 -4 -9 -9 3 -5 0 -13
-6 -17 -6 -4 -16 1 -21 10 -18 31 -28 15 -28 -44 0 -55 10 -75 25 -50 12 19
33 11 28 -10 -7 -25 -48 -37 -68 -20 -21 18 -21 133 1 154 18 19 40 21 50 5z
m5689 -114 c957 -2 1492 -7 1640 -15 124 -7 276 -9 348 -5 140 7 143 6 108
-50 -10 -16 -55 -67 -100 -113 -44 -45 -84 -94 -87 -107 -5 -20 14 -50 109
-172 131 -170 141 -186 133 -219 -10 -40 221 -36 -2256 -36 -877 1 -1616 4
-1642 7 -27 4 -48 12 -48 18 0 7 50 66 111 132 160 173 152 147 78 257 -35 51
-91 131 -126 177 -85 111 -83 124 17 132 41 4 125 4 185 2 61 -3 749 -7 1530
-8z m-6904 -171 c154 -73 229 -200 229 -390 l0 -80 -60 -50 c-74 -61 -146
-148 -194 -236 l-37 -67 -52 -6 c-29 -3 -277 -5 -552 -3 -555 4 -536 1 -641
73 -98 68 -153 177 -162 326 -13 234 100 411 295 458 21 5 279 9 573 8 l535
-2 66 -31z m4279 -24 c0 -7 -610 -10 -1810 -10 -1200 0 -1810 3 -1810 10 0 7
610 10 1810 10 1200 0 1810 -3 1810 -10z m-18768 -66 c106 -35 190 -152 192
-267 1 -34 -2 -74 -6 -88 -8 -27 -7 -27 55 -31 157 -10 269 -132 271 -293 0
-58 -5 -81 -27 -127 -53 -107 -160 -178 -269 -178 -37 0 -50 -4 -55 -17 -38
-114 -96 -183 -190 -228 -52 -24 -66 -27 -127 -22 -122 10 -221 79 -268 185
-17 37 -20 60 -16 128 l4 82 -40 6 c-60 9 -138 51 -184 97 l-40 40 -26 -33
c-13 -18 -31 -55 -37 -81 -12 -43 -16 -47 -44 -47 -125 -2 -235 -123 -222
-245 11 -105 68 -176 167 -206 20 -6 21 -7 5 -8 -30 -1 -96 32 -129 65 -64 64
-87 184 -51 269 31 76 110 138 193 151 35 6 41 10 51 46 7 21 28 57 48 79 l36
40 -13 54 c-26 107 5 220 81 296 48 48 90 70 158 84 30 6 58 18 62 26 3 8 15
34 27 59 27 61 65 105 120 137 91 54 170 62 274 27z m17088 -94 c0 -7 -330
-10 -970 -10 -640 0 -970 3 -970 10 0 7 330 10 970 10 640 0 970 -3 970 -10z
m1880 -51 c0 -5 16 -9 36 -9 42 0 74 -15 74 -35 0 -13 -39 -50 -62 -57 -7 -3
-6 -11 3 -25 18 -30 9 -36 -61 -41 -59 -4 -60 -5 -61 -36 -1 -17 -1 -35 1 -41
1 -5 -7 -2 -17 6 -10 9 -39 24 -66 33 -26 10 -44 22 -41 28 3 5 -18 -2 -47
-16 -30 -15 -45 -21 -35 -14 39 26 71 57 58 58 -9 0 -9 5 -3 18 6 9 19 38 30
64 21 51 65 84 80 60 5 -9 17 -7 45 7 36 19 66 19 66 0z m-3605 -239 c119 -37
202 -87 290 -175 89 -89 133 -157 173 -267 25 -67 27 -85 27 -223 0 -138 -2
-156 -27 -223 -40 -110 -84 -178 -173 -267 -89 -89 -170 -138 -295 -176 -111
-35 -283 -33 -395 4 -113 37 -198 90 -285 177 -306 304 -254 818 105 1059 172
115 390 149 580 91z m2620 -30 c100 -14 215 -73 285 -146 l55 -58 -58 51 c-70
61 -161 107 -245 123 -83 17 -220 7 -299 -20 -167 -58 -305 -199 -363 -370
-25 -72 -30 -216 -11 -279 6 -19 9 -37 7 -39 -12 -11 -36 111 -36 178 0 269
201 505 475 555 88 16 104 17 190 5z m-15875 -165 c17 0 26 -7 30 -25 4 -17 8
-21 14 -12 9 14 46 16 46 2 0 -5 15 -1 33 10 35 22 72 26 82 10 3 -5 24 -10
45 -10 79 0 94 -31 35 -75 -29 -23 -32 -29 -22 -46 17 -28 -2 -41 -68 -47 -54
-4 -56 -6 -53 -31 3 -25 2 -26 -54 -26 -31 0 -52 3 -46 6 6 4 1 10 -11 14 -11
3 -21 11 -21 17 0 9 -52 -17 -117 -60 -13 -8 -23 -12 -23 -9 0 3 27 22 59 42
52 32 59 40 59 69 0 17 7 49 16 70 32 77 17 113 -36 85 -18 -10 -20 -9 -15 6
4 9 8 29 8 43 2 26 2 26 8 -3 5 -24 11 -30 31 -30z m15795 -67 c-9 -62 -22
-133 -30 -157 -8 -25 -15 -46 -15 -48 0 -2 12 -3 28 -3 20 -1 33 -10 49 -35
l22 -35 -24 -25 c-14 -13 -25 -29 -25 -35 0 -5 -9 -10 -20 -10 -11 0 -20 -4
-20 -10 0 -18 -34 -27 -67 -18 -31 8 -33 11 -33 52 0 34 5 47 23 59 l22 16
-28 0 c-38 1 -83 26 -138 75 -25 22 -59 48 -76 58 -17 9 -37 27 -43 40 l-12
23 21 -23 c12 -12 44 -33 71 -47 47 -24 50 -24 50 -6 0 10 8 25 18 32 14 11
15 11 5 -1 -41 -45 25 -130 100 -130 46 0 67 45 108 237 13 61 25 110 27 108
2 -2 -4 -54 -13 -117z m280 82 c24 -16 54 -43 67 -60 17 -22 29 -28 46 -24 12
4 22 9 22 13 0 4 64 7 143 6 126 -1 149 -4 208 -26 134 -51 224 -120 291 -223
40 -62 79 -169 77 -215 0 -15 -6 -3 -15 31 -40 168 -173 312 -349 378 -84 31
-246 39 -335 15 -185 -48 -321 -170 -386 -345 -7 -19 -13 -27 -13 -18 -1 10 6
35 14 55 7 21 15 47 17 58 2 11 10 25 18 32 13 11 13 12 -2 13 -26 0 -22 17 5
23 12 4 49 32 82 64 33 32 86 72 117 88 32 17 58 36 58 44 0 14 -60 76 -100
103 -14 9 -21 17 -17 17 5 1 28 -12 52 -29z m-999 -128 c80 -41 124 -113 124
-201 0 -57 -9 -68 -33 -40 -21 24 -68 25 -97 1 -34 -28 -20 -62 50 -124 33
-29 60 -56 60 -61 0 -4 -13 -13 -30 -18 -18 -7 -39 -27 -55 -55 -14 -24 -30
-44 -35 -44 -9 0 -30 62 -30 87 0 7 -9 37 -21 68 -19 52 -22 55 -54 55 -40 0
-69 -32 -79 -85 l-7 -36 -41 23 c-86 48 -138 144 -124 229 15 97 96 188 196
220 40 13 133 3 176 -19z m1194 -171 c18 -37 24 -42 32 -28 5 9 19 17 31 16
21 0 21 0 2 -9 -12 -4 -27 -15 -34 -24 -28 -34 28 -146 72 -146 12 0 36 8 52
19 51 31 206 171 226 205 10 17 19 26 19 19 0 -28 -174 -213 -228 -242 l-24
-13 21 -14 c17 -12 21 -26 21 -65 0 -46 -2 -49 -26 -49 -14 0 -34 -5 -45 -10
-11 -6 -25 -7 -32 -3 -6 4 -20 6 -31 4 -21 -3 -66 36 -66 58 0 29 50 66 84 63
l31 -3 -25 13 c-30 15 -80 110 -80 150 0 16 -9 46 -20 68 -11 22 -20 50 -19
62 1 22 1 22 8 -2 5 -14 18 -45 31 -69z m-15094 7 c15 -18 38 -57 52 -87 34
-73 29 -190 -12 -269 -50 -98 -135 -161 -246 -182 -53 -10 -110 -6 -110 8 1
19 20 27 66 28 95 3 180 55 232 144 24 39 27 56 27 130 0 91 -15 133 -71 199
-26 31 -26 32 -8 46 28 21 39 18 70 -17z m13147 -8 c31 -24 36 -25 52 -3 18
24 37 6 64 -57 20 -46 23 -49 42 -37 24 14 39 -2 39 -43 0 -15 6 -32 13 -39
10 -11 9 -13 -1 -7 -7 5 -16 -1 -21 -16 -9 -20 -2 -30 52 -82 l62 -58 -64 51
c-42 35 -67 48 -75 42 -6 -5 -36 -9 -66 -8 -65 2 -114 28 -106 55 4 11 -5 28
-24 45 -31 29 -38 51 -20 62 7 4 7 12 0 25 -5 10 -10 35 -10 54 0 43 22 48 63
16z m-13216 -32 c117 -124 87 -316 -63 -404 -48 -28 -174 -47 -174 -26 0 30
14 42 49 42 71 1 165 66 190 133 28 74 1 180 -58 229 l-31 27 22 15 c30 21 29
21 65 -16z m5665 -35 c86 -41 155 -109 199 -198 32 -65 34 -77 34 -165 0 -82
-4 -103 -27 -153 -15 -32 -37 -70 -48 -84 l-21 -27 68 -31 c88 -41 156 -107
196 -193 29 -61 32 -75 31 -162 0 -74 -5 -108 -23 -152 -63 -161 -234 -268
-409 -255 -42 3 -100 14 -128 25 l-51 21 -34 -46 c-40 -53 -129 -115 -198
-138 -29 -9 -87 -17 -142 -18 -105 -1 -136 10 -235 83 -162 121 -203 351 -94
524 17 26 30 48 30 50 0 2 -24 18 -53 34 -30 17 -72 51 -94 76 -43 49 -103
154 -103 181 0 39 -119 -38 -160 -106 -17 -27 -29 -37 -40 -33 -8 4 -41 14
-73 23 -53 14 -62 14 -123 -2 -130 -34 -210 -117 -233 -242 -22 -120 31 -242
139 -318 14 -10 5 -8 -19 5 -55 29 -97 77 -129 146 -21 48 -24 64 -20 140 3
64 10 98 27 130 70 137 227 214 371 183 l52 -11 49 49 c27 27 73 61 102 75
l54 25 6 60 c10 95 42 165 107 235 107 114 258 160 410 125 l44 -10 46 49 c95
103 193 144 335 139 76 -2 100 -7 157 -34z m-5907 8 c69 -31 117 -107 114
-181 -1 -17 -4 -13 -10 15 -18 80 -66 137 -133 156 -88 24 -182 -24 -213 -110
-16 -46 -20 -50 -58 -57 -57 -9 -90 -28 -122 -71 -24 -31 -28 -46 -28 -103 0
-80 27 -129 90 -160 22 -11 34 -20 26 -20 -8 0 -33 11 -57 25 -73 43 -106 153
-71 238 21 49 90 106 137 113 35 6 43 12 56 43 45 107 167 159 269 112z
m-1927 -133 c53 -56 77 -121 77 -213 -1 -67 -5 -89 -29 -135 -37 -74 -89 -127
-159 -160 -89 -43 -197 -52 -197 -16 0 9 21 15 62 19 203 18 319 211 238 395
-12 26 -35 61 -51 78 l-31 32 23 16 c31 21 30 21 67 -16z m-75 -28 c14 -11 38
-46 53 -76 85 -173 -41 -374 -233 -374 -40 0 -44 2 -41 23 2 18 11 23 53 28
64 8 104 28 143 73 74 84 66 201 -18 284 -33 31 -33 32 -14 47 25 19 27 19 57
-5z m13400 -53 c4 -40 16 -102 27 -138 11 -35 20 -67 20 -71 0 -5 -256 -8
-570 -8 l-570 0 0 -67 c0 -128 34 -190 113 -212 30 -9 176 -11 502 -9 458 3
460 3 496 26 43 26 69 81 69 145 l0 42 46 -68 c25 -37 72 -94 105 -127 l60
-58 -21 -42 c-50 -97 -151 -166 -287 -195 -100 -21 -887 -21 -988 0 -140 30
-234 98 -286 208 -40 88 -49 161 -49 420 l0 227 664 0 663 0 6 -73z m5765 51
c9 -9 12 -9 12 0 0 7 15 12 39 12 43 0 61 -14 37 -27 -10 -6 -16 -29 -18 -77
-2 -44 -8 -71 -15 -74 -10 -3 -13 16 -13 72 0 61 -3 76 -15 76 -8 0 -15 -4
-15 -10 0 -5 -7 -10 -15 -10 -8 0 -15 5 -15 10 0 6 -4 10 -10 10 -6 0 -10 -27
-10 -60 0 -57 11 -78 24 -45 8 23 28 18 24 -6 -4 -30 -33 -47 -55 -33 -23 14
-32 152 -11 165 19 12 42 11 56 -3z m-19767 -155 c11 -27 57 -145 100 -263 49
-132 117 -288 175 -403 94 -187 108 -233 79 -257 -8 -7 -15 -10 -15 -6 0 4
-15 -1 -32 -11 -42 -21 -198 -24 -278 -4 -60 15 -143 49 -122 50 7 1 11 5 8 9
-3 5 19 1 47 -9 108 -37 331 -43 370 -10 12 9 16 9 20 -1 3 -7 6 0 6 16 1 33
-46 126 -62 123 -15 -3 -143 250 -196 386 -23 59 -48 137 -57 174 -9 38 -28
110 -44 161 -16 50 -26 92 -24 92 3 0 14 -21 25 -47z m23156 32 c5 -14 8 -14
25 2 32 29 52 6 56 -63 2 -46 0 -61 -14 -71 -15 -11 -22 -10 -41 2 -13 9 -23
11 -23 6 0 -15 -32 -22 -46 -10 -18 14 -19 120 -2 137 17 17 37 15 45 -3z
m-327 -135 c0 -7 -612 -10 -1815 -10 -1203 0 -1815 3 -1815 10 0 7 612 10
1815 10 1203 0 1815 -3 1815 -10z m-23053 -52 c-31 -41 -63 -128 -72 -194 -15
-115 37 -262 130 -362 63 -68 131 -108 206 -121 37 -6 44 -9 23 -10 -46 -2
-133 27 -180 60 -61 42 -107 100 -161 203 -46 89 -47 93 -48 181 0 78 4 97 27
145 25 50 83 130 94 130 3 0 -6 -15 -19 -32z m18965 -38 c42 0 68 -12 68 -30
0 -17 -37 -54 -62 -62 -7 -3 -6 -11 3 -26 19 -31 1 -42 -68 -42 -52 0 -53 -1
-49 -27 2 -16 7 -36 11 -46 4 -9 5 -27 1 -39 -3 -15 2 -31 17 -47 18 -20 13
-18 -27 9 l-50 34 27 9 c15 5 27 12 27 15 0 11 -39 34 -100 59 l-54 22 -63
-35 c-35 -19 -63 -33 -63 -30 0 3 29 21 65 41 58 33 65 40 65 68 0 18 9 50 19
72 20 44 67 78 80 57 5 -9 17 -7 46 8 35 18 41 18 62 5 12 -8 33 -15 45 -15z
m-20149 -31 c38 -47 3 -119 -59 -119 -71 0 -103 86 -47 130 33 26 79 21 106
-11z m4418 -22 c41 -31 52 -77 52 -207 0 -178 -43 -380 -99 -465 -34 -52 -104
-15 -144 77 -20 45 -23 70 -23 168 1 181 50 341 127 408 39 34 61 39 87 19z
m18134 -17 c4 -7 -322 -10 -969 -10 -644 0 -976 3 -976 10 0 7 330 10 969 10
636 0 972 -3 976 -10z m-19375 -151 c84 -38 120 -93 120 -184 0 -84 -35 -137
-112 -170 -48 -20 -50 -19 -36 10 13 29 -8 69 -43 80 -28 9 -42 -9 -65 -79
-22 -68 -29 -74 -57 -48 -14 13 -36 22 -55 22 -46 0 -47 15 -5 46 67 49 93 77
93 101 0 29 -32 46 -81 41 -36 -3 -39 -2 -39 22 1 35 25 97 47 122 54 61 147
76 233 37z m8576 -4 c63 -19 122 -69 154 -131 33 -65 34 -160 2 -221 -28 -54
-45 -65 -19 -12 44 88 30 191 -36 266 -47 53 -101 77 -177 77 -80 0 -132 -25
-186 -88 l-39 -45 -53 14 c-150 40 -296 -74 -296 -230 1 -85 36 -150 108 -199
43 -29 41 -34 -3 -11 -72 36 -131 138 -131 223 0 49 28 125 61 165 58 71 179
112 261 89 35 -10 38 -8 87 39 76 73 165 95 267 64z m9422 -17 c9 -9 12 -9 12
0 0 7 15 12 39 12 43 0 61 -14 37 -27 -10 -6 -16 -29 -18 -77 -2 -44 -8 -71
-15 -74 -10 -3 -13 16 -13 72 0 61 -3 76 -15 76 -8 0 -15 -4 -15 -10 0 -5 -7
-10 -15 -10 -8 0 -15 5 -15 10 0 6 -4 10 -10 10 -6 0 -10 -27 -10 -60 0 -33 4
-60 10 -60 6 0 10 7 10 15 0 8 7 15 15 15 25 0 17 -39 -10 -52 -41 -19 -55 3
-55 87 0 39 3 75 7 78 11 11 48 8 61 -5z m-8905 -105 c18 -40 22 -66 22 -158
0 -103 -2 -114 -32 -178 -93 -196 -325 -301 -529 -239 -92 28 -111 42 -93 69
13 21 13 21 49 3 88 -45 217 -45 313 0 176 83 259 303 183 485 -24 56 -24 55
52 64 7 0 23 -20 35 -46z m-103 -12 c10 -21 23 -63 27 -93 31 -204 -113 -384
-318 -396 -82 -5 -186 18 -195 43 -9 23 15 58 34 49 9 -4 42 -14 72 -22 45
-12 63 -12 103 -2 99 25 181 90 215 169 8 20 15 65 15 101 0 59 -12 99 -51
172 -3 6 24 14 60 17 11 0 25 -14 38 -38z m12397 -2 c8 -8 16 -7 31 2 17 10
23 10 37 -1 12 -10 15 -27 13 -74 -3 -55 -5 -61 -26 -64 -13 -2 -30 2 -38 8
-11 10 -14 10 -14 1 0 -8 -11 -11 -27 -9 -27 3 -28 6 -31 61 -4 74 22 109 55
76z m-20772 -39 c17 -11 44 -42 59 -70 l27 -50 -46 0 c-58 0 -105 -20 -133
-55 -64 -81 21 -217 162 -261 l55 -17 -2 -136 c-1 -143 8 -194 52 -280 12 -23
20 -45 17 -50 -10 -16 33 -8 179 34 83 24 166 46 185 49 l35 6 -30 -11 c-16
-6 -64 -26 -105 -45 -147 -65 -479 -141 -560 -128 -39 6 -110 -11 -110 -27 0
-5 4 -9 9 -9 5 0 11 -13 14 -28 8 -39 105 -158 166 -206 45 -34 63 -56 45 -56
-3 0 -31 17 -61 37 -82 54 -160 160 -177 240 -6 27 -3 34 18 48 13 9 29 29 34
44 8 23 7 27 -10 28 -24 2 -78 -30 -141 -86 -26 -22 -62 -43 -81 -46 -38 -8
-78 8 -71 28 8 20 -9 36 -42 43 -28 6 -33 3 -48 -29 -19 -41 -82 -117 -96
-117 -6 0 -17 -7 -25 -15 -13 -12 -11 -21 14 -71 l29 -57 -25 -51 c-18 -38
-23 -61 -19 -93 2 -23 1 -40 -4 -37 -5 3 -9 -21 -9 -54 0 -81 -24 -112 -86
-112 -62 0 -130 29 -223 94 -99 70 -115 90 -23 30 126 -84 209 -115 266 -100
34 8 49 63 50 186 1 84 -2 101 -26 149 -14 29 -20 47 -12 39 8 -8 25 -40 38
-71 l23 -56 15 32 c15 31 15 36 -10 88 -38 77 -160 198 -239 235 -34 16 -61
34 -59 39 9 29 122 -35 200 -113 60 -58 58 -59 99 23 56 114 95 265 118 465
19 167 43 203 93 137 17 -23 21 -44 22 -115 2 -104 1 -97 17 -84 7 6 31 14 54
18 35 5 44 3 74 -24 31 -28 34 -35 33 -89 0 -68 -27 -128 -82 -185 -43 -45
-32 -48 29 -9 62 39 104 92 124 159 16 49 17 76 9 231 -18 370 -7 457 72 537
47 49 71 54 119 24z m-3665 -54 c8 -24 16 -32 33 -32 24 1 27 -18 14 -81 -6
-28 -4 -33 13 -33 11 0 20 -5 20 -12 0 -18 -51 -88 -61 -83 -4 3 -4 -9 2 -27
13 -47 10 -59 -5 -18 -8 23 -20 36 -34 38 -31 5 -92 65 -92 91 0 11 4 21 9 21
5 0 7 19 4 41 -5 31 -2 44 9 50 9 5 19 21 23 36 15 60 46 64 65 9z m19595 -26
c-23 -26 -11 -26 26 1 16 11 29 16 29 11 0 -6 -24 -27 -52 -48 -74 -52 -79
-58 -34 -40 51 21 54 20 25 -11 -22 -23 -22 -26 -4 -19 16 5 15 2 -5 -14 -42
-34 6 -13 75 33 l60 40 -35 -37 c-19 -20 -57 -48 -85 -61 -51 -25 -173 -60
-181 -52 -2 2 21 21 52 41 61 41 65 51 16 37 -18 -5 -32 -6 -32 -1 0 5 -8 10
-17 12 -10 2 4 13 35 27 34 16 51 30 50 40 -2 10 13 24 42 38 56 27 57 28 35
3z m4515 -30 c0 -7 -612 -10 -1815 -10 -1203 0 -1815 3 -1815 10 0 7 612 10
1815 10 1203 0 1815 -3 1815 -10z m-6079 -154 c15 -9 61 -26 101 -37 71 -19
72 -19 20 -14 -29 3 -60 9 -69 12 -11 4 -14 3 -9 -5 5 -8 -1 -12 -16 -12 -22
-1 -22 -2 7 -26 17 -14 54 -37 83 -51 28 -13 52 -26 52 -28 0 -1 -17 1 -37 6
-21 5 -49 8 -63 8 l-25 0 30 -24 c16 -13 55 -34 87 -46 64 -24 75 -34 26 -24
-60 13 -177 73 -208 107 -35 38 -41 61 -7 30 37 -35 41 -26 9 21 -43 64 -48
74 -20 50 13 -13 27 -23 30 -23 3 0 -9 28 -28 63 -36 67 -47 105 -13 46 12
-20 34 -44 50 -53z m-15990 -5 c34 -35 36 -59 8 -95 -24 -31 -81 -36 -111 -9
-29 26 -24 87 8 112 36 28 60 26 95 -8z m20384 -1 c4 -7 -322 -10 -969 -10
-644 0 -976 3 -976 10 0 7 330 10 969 10 636 0 972 -3 976 -10z m-8364 -285
c19 -93 38 -165 41 -160 3 6 20 83 38 173 l33 162 74 0 73 0 -2 -312 -3 -313
-45 0 -45 0 -3 220 -4 220 -44 -210 c-24 -115 -46 -216 -49 -222 -7 -19 -43
-16 -53 5 -5 9 -27 107 -48 216 l-39 200 -5 -215 -5 -214 -45 0 -45 0 -3 313
-2 313 72 -3 73 -3 36 -170z m659 125 l0 -50 -90 0 -90 0 0 -75 0 -74 68 -3
67 -3 3 -47 3 -48 -70 0 -71 0 0 -90 0 -90 96 0 95 0 -3 -47 -3 -48 -147 -3
-148 -3 0 316 0 315 145 0 145 0 0 -50z m237 -27 c17 -43 45 -120 64 -171 l34
-94 3 172 2 171 48 -3 47 -3 0 -310 0 -310 -46 -3 c-54 -3 -40 -28 -128 223
l-50 140 -3 -180 -3 -180 -47 -3 -48 -3 0 315 0 316 49 0 49 0 29 -77z m423
-162 c0 -132 4 -251 9 -264 13 -33 46 -43 76 -23 l25 16 0 255 0 255 55 0 55
0 0 -262 c0 -245 -1 -265 -20 -296 -30 -48 -75 -72 -140 -72 -68 0 -117 24
-145 71 -18 31 -20 55 -23 297 l-3 262 55 0 56 0 0 -239z m-7525 203 c29 -19
48 -72 39 -108 -9 -38 -59 -76 -99 -76 -44 0 -92 41 -101 84 -6 37 14 88 43
105 27 16 91 13 118 -5z m13193 -16 c9 -9 12 -9 12 0 0 7 15 12 39 12 43 0 61
-14 37 -27 -10 -6 -16 -29 -18 -77 -2 -44 -8 -71 -15 -74 -10 -3 -13 16 -13
72 0 61 -3 76 -15 76 -8 0 -15 -4 -15 -10 0 -5 -7 -10 -15 -10 -8 0 -15 5 -15
10 0 6 -4 10 -10 10 -6 0 -10 -27 -10 -60 0 -33 4 -60 10 -60 6 0 10 7 10 15
0 8 7 15 15 15 20 0 19 -24 -1 -44 -18 -19 -20 -19 -45 -6 -16 9 -19 22 -19
84 0 40 3 76 7 79 11 11 48 8 61 -5z m-18068 -18 c0 -5 19 -10 43 -10 57 0 84
-19 68 -48 -6 -11 -24 -29 -41 -38 -28 -17 -28 -19 -13 -36 23 -25 9 -36 -64
-49 -56 -10 -60 -12 -55 -35 4 -20 0 -24 -22 -24 -14 0 -49 9 -78 20 l-52 19
-50 -31 c-28 -17 -61 -37 -73 -46 -13 -8 -23 -12 -23 -9 0 3 34 27 76 53 58
37 74 52 70 67 -7 30 21 111 49 137 20 19 30 22 43 14 13 -8 24 -6 47 8 32 19
75 24 75 8z m-1924 -42 c72 -26 137 -86 173 -160 36 -71 40 -108 12 -108 -13
0 -21 10 -25 33 -15 78 -92 162 -175 192 -122 43 -281 -19 -339 -130 l-17 -33
-25 20 -24 20 24 44 c69 131 236 182 396 122z m-4 -69 c54 -29 89 -65 118
-122 36 -73 37 -87 6 -87 -19 0 -27 8 -36 36 -16 49 -66 103 -115 125 -104 48
-234 -7 -275 -116 l-11 -29 -21 21 c-26 26 -20 54 23 106 36 44 97 78 154 87
47 7 124 -3 157 -21z m23385 10 c8 -8 16 -7 31 2 17 10 23 10 37 -1 12 -10 15
-27 13 -74 -3 -56 -5 -61 -27 -64 -13 -2 -28 2 -32 10 -8 11 -10 11 -18 0 -4
-8 -19 -12 -32 -10 -22 3 -24 8 -27 62 -2 32 -1 65 2 72 6 17 38 18 53 3z
m-5042 -109 c215 -7 442 -9 506 -5 130 7 130 8 149 -65 27 -97 2 -600 -30
-620 -28 -17 -424 -22 -897 -10 -346 9 -672 10 -1068 4 -313 -4 -680 -8 -815
-8 -731 0 -1126 5 -1140 14 -13 8 -15 52 -14 302 0 193 4 312 13 349 l12 56
1447 -3 c796 -1 1623 -8 1837 -14z m4715 -40 c0 -7 -612 -10 -1815 -10 -1203
0 -1815 3 -1815 10 0 7 612 10 1815 10 1203 0 1815 -3 1815 -10z m-23727 -48
c9 -10 18 -27 20 -39 4 -30 26 -53 49 -53 20 0 20 14 1 85 -4 15 -2 17 7 9 6
-6 17 -33 24 -60 8 -32 18 -50 29 -52 14 -3 17 2 13 20 -2 13 2 32 10 43 15
21 17 15 14 -42 -1 -24 3 -33 14 -33 29 0 27 -21 -4 -60 -35 -44 -47 -48 -65
-23 -12 16 -15 16 -54 -2 -49 -22 -87 -11 -97 30 -5 20 -12 25 -38 25 -42 0
-49 7 -78 68 l-25 52 33 0 c36 0 54 17 33 31 -8 5 -9 9 -4 9 6 0 30 -14 54
-30 63 -43 72 -41 46 10 -17 33 -7 40 18 12z m9358 -507 c-1 -395 1 -471 19
-625 11 -96 20 -194 20 -217 0 -49 -16 -89 -38 -98 -13 -5 -12 -2 2 14 21 24
23 86 5 187 -11 58 -14 64 -19 39 -9 -44 -28 137 -41 378 -11 208 -1 454 21
512 7 17 12 91 13 167 1 90 5 129 11 115 5 -12 8 -224 7 -472z m-7771 429 c74
-21 160 -68 200 -109 l32 -33 57 19 c77 27 191 37 191 17 0 -11 -13 -15 -49
-17 -28 -1 -81 -11 -118 -22 -175 -54 -305 -174 -370 -342 l-24 -62 5 47 c4
31 1 48 -7 52 -7 3 -3 7 10 11 12 4 24 14 27 22 4 11 2 13 -9 9 -18 -6 -19 -2
-5 25 6 10 17 19 25 19 15 0 30 18 22 26 -3 3 -16 0 -29 -7 -21 -11 -22 -11
-9 4 7 10 24 17 36 17 14 0 35 13 52 33 15 18 49 51 76 72 26 22 47 42 47 45
0 3 -25 22 -56 43 -31 20 -54 37 -50 37 11 0 68 -31 97 -53 23 -16 30 -17 50
-7 l23 13 -30 24 c-44 37 -159 91 -223 104 -79 16 -231 6 -309 -21 -126 -44
-264 -156 -329 -267 -77 -132 -99 -311 -54 -442 12 -35 20 -65 18 -67 -7 -7
-46 107 -53 154 -4 23 -12 42 -19 42 -15 0 -49 -37 -69 -77 -9 -18 -21 -33
-26 -33 -5 0 -16 26 -25 58 -26 94 -62 162 -86 162 -47 0 -89 -50 -89 -105 0
-23 -3 -25 -22 -19 -79 24 -156 117 -165 198 -11 93 64 218 161 269 53 28 164
30 216 3 83 -43 139 -128 140 -215 1 -21 4 -17 19 20 27 68 93 161 157 217 90
81 209 135 339 155 48 8 165 -3 225 -19z m19972 -41 c-272 -2 -713 -2 -980 0
-268 1 -46 2 493 2 539 0 758 -1 487 -2z m-12742 -75 c-35 -35 -78 -87 -97
-116 -128 -199 -134 -495 -13 -737 35 -73 129 -195 116 -152 -4 12 14 3 52
-27 132 -104 346 -201 430 -194 51 4 51 -13 0 -26 -26 -7 -56 -4 -108 8 -148
36 -272 109 -381 224 -86 89 -136 177 -175 307 -24 79 -27 107 -27 230 -1 125
2 148 26 221 15 44 45 109 68 145 38 58 150 179 166 179 4 0 -22 -28 -57 -62z
m-7399 -116 c-6 -65 -17 -139 -25 -164 l-14 -47 31 1 c18 1 33 -5 35 -12 3 -8
15 -23 28 -35 l24 -22 -25 -23 c-14 -13 -27 -31 -31 -42 -3 -10 -14 -18 -24
-18 -10 0 -20 -7 -24 -15 -3 -9 -18 -15 -35 -15 -53 0 -61 8 -61 59 0 40 4 49
28 64 l27 17 -27 -6 c-39 -9 -96 13 -142 56 -23 21 -59 47 -81 58 -22 11 -51
33 -65 49 l-25 28 25 -21 c14 -12 49 -34 78 -48 48 -25 52 -25 52 -7 0 10 7
25 17 32 15 13 15 12 4 -9 -21 -40 -6 -68 51 -96 29 -14 59 -26 68 -26 42 0
66 67 97 267 10 62 19 109 21 103 2 -6 -1 -63 -7 -128z m7664 119 c-93 -23
-206 -127 -263 -243 -141 -287 -15 -689 242 -775 39 -13 39 -13 6 -8 -161 25
-297 205 -329 438 -24 169 -6 288 57 387 67 105 212 209 292 208 22 0 22 -1
-5 -7z m1213 -61 c33 -94 27 -213 -16 -304 -84 -179 -292 -291 -477 -257 -79
14 -155 46 -155 64 0 31 21 35 68 13 38 -17 66 -21 147 -21 91 0 105 3 158 29
71 36 140 108 175 184 24 50 27 69 26 157 0 79 -5 110 -22 147 l-21 47 22 4
c60 12 71 5 95 -63z m-107 3 c19 -39 24 -64 24 -133 0 -76 -3 -92 -33 -152
-38 -77 -92 -130 -171 -167 -76 -35 -201 -37 -274 -4 l-48 22 16 30 15 30 43
-19 c48 -22 143 -25 194 -7 108 40 183 147 183 262 0 48 -6 75 -28 118 -31 61
-30 63 29 66 22 1 31 -7 50 -46z m-5956 -154 c0 -101 -1 -108 -37 -180 -36
-72 -96 -155 -105 -145 -2 2 18 53 45 113 61 131 76 200 68 307 l-5 81 17 -35
c12 -26 17 -62 17 -141z m7695 150 c0 -14 5 -19 14 -16 64 25 131 19 141 -13
3 -11 27 -29 53 -40 47 -21 82 -47 82 -61 0 -21 -48 -49 -91 -55 -45 -6 -47
-7 -37 -30 20 -42 4 -57 -52 -50 -27 4 -67 13 -90 21 l-40 14 0 -30 c0 -22 -6
-32 -20 -36 -20 -5 -20 -5 0 -30 23 -29 18 -43 -14 -43 -36 0 -36 -9 -5 -58
16 -25 29 -50 29 -56 0 -5 -13 10 -28 35 -16 24 -36 50 -45 58 -27 22 -20 31
23 31 43 0 53 17 25 40 -9 7 -13 15 -10 18 3 3 -5 13 -18 21 -45 31 -107 84
-107 93 0 4 12 9 28 9 15 1 20 3 10 6 -9 2 -69 -5 -133 -17 -65 -12 -119 -19
-122 -17 -2 3 42 13 99 24 l103 19 22 45 c25 53 90 125 118 132 47 11 65 7 65
-14z m-4472 -52 c3 -53 5 -57 27 -57 33 0 32 -21 -5 -87 -35 -62 -35 -59 -12
-66 11 -2 22 -14 25 -27 3 -12 3 -20 0 -17 -3 3 -29 -10 -58 -29 -62 -39 -65
-40 -65 -17 0 31 -10 7 -19 -48 -8 -52 -9 -52 -10 -14 -1 27 -8 46 -21 58 -11
9 -36 41 -55 71 -46 73 -84 83 -85 24 0 -26 -12 -22 -46 14 l-29 32 28 -18
c27 -17 28 -16 46 5 14 18 21 20 38 10 19 -9 22 -8 25 12 2 14 11 23 26 25 18
3 22 10 22 38 0 43 15 74 37 74 9 0 33 18 54 41 53 57 73 51 77 -24z m-3278
-2 c16 -19 5 -114 -19 -170 -19 -42 -91 -115 -115 -115 -8 0 -21 -3 -30 -6
-28 -11 -18 28 18 74 19 24 49 78 66 120 51 122 55 127 80 97z m-2220 -120
c19 -31 25 -34 32 -21 5 9 20 15 36 15 24 -2 24 -2 4 -6 -12 -2 -30 -15 -38
-29 -15 -23 -15 -27 11 -80 51 -105 81 -97 244 64 60 59 107 103 104 97 -17
-30 -153 -182 -186 -208 -37 -30 -37 -32 -19 -47 13 -9 21 -32 25 -62 4 -42 2
-48 -15 -48 -10 0 -31 -6 -47 -14 -15 -8 -33 -11 -40 -7 -7 4 -23 6 -37 3 -17
-3 -33 3 -50 18 -30 29 -30 35 2 77 19 25 31 32 45 28 28 -9 23 7 -11 40 -19
18 -36 50 -46 84 -9 31 -27 80 -40 109 -13 29 -24 62 -24 75 1 16 4 12 14 -14
7 -20 23 -53 36 -74z m1197 -107 c19 -26 52 -61 74 -78 21 -18 39 -36 39 -41
0 -21 -82 -91 -144 -123 -36 -19 -66 -31 -66 -28 0 4 -4 2 -8 -3 -13 -19 -260
-135 -289 -136 -60 -4 -61 -3 -65 60 l-3 58 40 -4 c22 -3 59 -12 83 -20 34
-13 48 -14 68 -4 14 6 34 11 45 11 11 0 41 11 68 25 l49 24 -19 57 c-10 31
-24 63 -30 71 -7 7 -19 28 -28 45 -9 19 -28 36 -46 42 -16 5 -38 20 -48 33
-10 12 -26 23 -35 23 -13 0 -11 5 8 20 14 11 29 20 33 20 4 0 37 23 72 50 35
28 69 50 74 50 5 0 12 7 15 16 4 11 17 -5 42 -53 20 -37 52 -89 71 -115z
m10859 137 c52 -21 64 -60 64 -205 0 -175 -19 -210 -115 -210 -96 0 -115 35
-115 210 0 142 12 183 62 205 42 18 61 18 104 0z m10042 3 c9 -9 15 -9 24 0
20 20 47 14 53 -11 4 -13 5 -46 3 -73 -3 -43 -6 -49 -27 -52 -13 -2 -27 2 -31
8 -6 9 -12 9 -27 -1 -38 -23 -53 -6 -53 64 0 35 3 67 7 70 10 11 38 8 51 -5z
m-10452 -106 c12 -57 24 -105 27 -108 2 -2 10 24 16 58 7 35 17 84 23 111 l10
47 49 0 49 0 0 -211 0 -210 -32 3 -33 3 -4 130 -3 130 -27 -130 c-23 -114 -29
-130 -47 -133 -19 -3 -23 9 -50 140 l-29 143 -3 -142 -3 -143 -29 0 -30 0 0
211 0 210 48 -3 47 -3 21 -103z m659 0 l40 -107 3 108 3 107 34 0 35 0 0 -210
0 -210 -34 0 c-38 0 -34 -7 -97 174 l-24 70 -3 -122 -3 -122 -34 0 -35 0 0
210 0 210 38 0 37 0 40 -108z m364 92 c38 -27 51 -74 51 -186 0 -185 -19 -213
-144 -213 l-81 0 -3 208 -2 207 78 0 c55 0 84 -5 101 -16z m304 -186 c21 -112
37 -206 37 -210 0 -5 -15 -8 -34 -8 -35 0 -46 15 -46 68 0 19 -5 22 -39 22
-38 0 -39 -1 -45 -45 -7 -43 -9 -45 -42 -45 -22 0 -34 5 -34 14 0 7 16 98 35
202 19 103 35 192 35 196 0 4 22 8 48 8 l48 0 37 -202z m158 133 c13 -39 26
-68 29 -66 4 2 15 34 25 70 l17 65 39 0 c21 0 39 -2 39 -4 0 -2 -17 -48 -37
-102 -31 -83 -38 -116 -42 -204 l-6 -105 -37 -3 -37 -3 -3 98 c-3 85 -9 113
-45 211 l-41 112 38 0 39 0 22 -69z m-15442 -69 c20 -16 51 -57 69 -91 27 -53
32 -74 32 -130 0 -249 -270 -168 -297 90 -5 46 -2 66 16 102 12 24 31 49 44
55 35 18 95 7 136 -26z m23179 21 c-498 -2 -1317 -2 -1820 0 -502 1 -94 2 907
2 1001 0 1412 -1 913 -2z m-20043 -63 c30 10 40 9 60 -4 13 -8 25 -25 27 -38
2 -14 13 -24 31 -29 41 -11 56 -26 67 -71 6 -21 14 -46 17 -55 5 -14 0 -15
-35 -9 -43 6 -51 0 -29 -23 10 -11 8 -11 -10 -2 -12 6 -25 15 -28 21 -3 5 -19
19 -36 30 l-30 22 5 -26 c3 -14 7 -30 11 -36 3 -5 2 -10 -2 -10 -18 0 -33 25
-33 56 0 24 -8 39 -27 54 l-28 22 -6 -34 c-3 -18 -2 -43 3 -55 4 -13 4 -23 -1
-23 -13 0 -21 27 -21 70 0 21 -6 43 -15 50 -12 10 -17 5 -31 -31 -15 -35 -19
-39 -24 -23 -4 10 -2 30 4 43 9 20 7 26 -12 39 l-23 15 42 39 42 39 23 -22
c20 -19 26 -20 59 -9z m-2783 -15 c36 -24 37 -25 43 -4 11 33 36 18 70 -43 28
-51 33 -56 46 -42 29 28 44 8 43 -54 -1 -31 -3 -63 -5 -70 -2 -7 16 -31 41
-53 l45 -41 -43 32 c-41 31 -44 32 -91 20 -27 -6 -64 -10 -82 -8 -42 4 -83 36
-69 53 7 9 0 20 -25 39 -29 22 -34 33 -34 64 1 20 -2 58 -6 85 -7 42 -6 47 11
47 11 0 36 -11 56 -25z m4042 -90 c13 -36 -34 -101 -115 -156 -105 -71 -156
-89 -354 -124 -38 -6 -99 -21 -135 -33 -110 -35 -140 -41 -140 -29 0 6 -6 3
-12 -6 -7 -9 -35 -26 -63 -36 -63 -24 -70 -41 -15 -41 76 0 91 -50 26 -85 -32
-18 -33 -20 -19 -41 13 -21 13 -24 -6 -33 -11 -6 -37 -11 -58 -11 -77 0 -80
-31 -8 -69 25 -13 59 -39 75 -58 l30 -34 0 -157 c0 -512 -171 -1079 -452
-1497 -253 -375 -596 -617 -1014 -714 -38 -9 -54 -19 -63 -37 -30 -66 -169
-107 -516 -150 -193 -24 -567 -22 -750 5 -418 60 -680 168 -661 271 4 24 -3
29 -104 78 -211 102 -439 274 -586 443 -195 222 -364 558 -443 879 -52 211
-65 331 -66 570 0 118 4 232 8 253 26 125 272 234 734 326 246 48 227 47 218
14 -4 -15 -9 -43 -10 -61 -1 -18 -5 -36 -9 -39 -15 -15 -5 -82 16 -109 13 -15
24 -43 25 -62 3 -42 26 -79 64 -100 16 -10 29 -22 29 -28 0 -6 17 -20 39 -32
56 -32 113 -29 186 11 91 49 107 89 92 230 -7 61 -27 98 -64 118 -13 7 -25 21
-29 31 -10 33 -65 88 -88 88 -16 1 -18 2 -6 9 18 10 251 36 503 56 168 13 181
16 250 49 39 19 92 38 117 42 61 9 50 1 -45 -31 -113 -37 -186 -81 -334 -198
-71 -56 -150 -118 -177 -137 -27 -19 -55 -49 -63 -65 -19 -39 -17 -154 2 -229
19 -70 50 -106 121 -137 44 -20 67 -23 176 -22 74 1 155 8 198 17 115 25 109
28 117 -61 11 -131 47 -203 102 -203 l27 0 -32 33 c-40 41 -41 55 -2 27 34
-24 39 -17 11 14 -10 12 -27 35 -37 51 -18 30 -18 30 1 14 42 -34 43 -27 5 38
-40 68 -57 117 -20 55 33 -53 82 -76 214 -97 64 -11 35 -14 -39 -5 -38 5 -72
5 -75 1 -3 -4 -12 -10 -19 -13 -19 -6 60 -60 112 -77 20 -7 37 -15 37 -17 0
-3 -28 -2 -62 2 -58 7 -62 6 -49 -9 12 -15 42 -17 250 -17 130 0 251 4 270 10
19 5 70 14 115 20 45 7 100 20 124 30 23 10 42 17 42 15 0 -13 -68 -48 -108
-55 -66 -12 111 -2 198 11 190 29 564 164 726 261 l115 69 43 -21 c55 -26 162
-28 242 -5 58 17 152 61 188 88 19 14 19 16 3 40 -10 16 -13 28 -7 32 6 3 10
14 10 23 0 14 8 17 45 14 55 -5 58 8 8 44 -21 16 -42 31 -47 36 -5 4 3 12 17
17 27 11 37 31 15 31 -6 0 -8 3 -4 7 12 12 -76 33 -95 22 -10 -5 -26 -9 -36
-8 -14 0 -13 2 6 10 18 7 21 12 12 23 -6 7 -7 17 -3 21 4 4 -38 -15 -93 -44
-55 -29 -89 -43 -75 -32 14 11 28 21 32 21 3 0 11 14 17 32 10 29 12 30 29 15
20 -18 34 -13 26 8 -3 7 3 19 13 26 24 18 66 121 61 151 -4 24 -8 25 -45 14
-20 -6 -21 -4 -13 29 10 46 20 56 20 22 0 -34 10 -34 49 -1 35 29 127 67 142
59 5 -4 9 -1 9 4 0 6 10 11 23 11 13 0 27 4 32 8 25 22 127 50 202 57 24 2 47
6 53 10 5 3 10 2 10 -2 0 -5 9 -9 19 -9 11 0 18 3 15 7 -2 4 6 7 19 7 61 1
332 107 420 165 95 62 102 65 111 42z m17518 8 c-272 -2 -713 -2 -980 0 -268
1 -46 2 493 2 539 0 758 -1 487 -2z m-17862 -106 c0 -32 -154 -77 -262 -77
-56 0 -246 -40 -334 -70 -62 -22 -84 -18 -59 10 41 45 158 75 411 104 66 7
133 20 150 29 36 20 94 22 94 4z m17011 -78 c35 1 59 -3 59 -9 0 -5 -7 -10
-15 -10 -12 0 -15 -15 -15 -75 0 -59 -3 -75 -15 -75 -11 0 -15 17 -17 72 -2
46 -7 73 -15 76 -7 2 -13 -3 -13 -12 0 -21 -20 -20 -36 2 -12 15 -13 9 -14
-45 0 -36 4 -63 10 -63 6 0 10 5 10 10 0 6 7 10 15 10 8 0 15 -6 15 -14 0 -21
-26 -38 -52 -34 -21 3 -23 8 -26 78 -2 61 0 77 14 87 9 7 21 10 27 6 5 -3 36
-5 68 -4z m3347 -131 c10 -10 15 -10 21 0 5 8 19 12 32 10 21 -3 24 -9 27 -52
2 -27 1 -60 -3 -73 -6 -24 -33 -31 -52 -12 -8 8 -16 7 -30 -2 -38 -23 -53 -6
-53 64 0 35 3 67 7 70 10 11 38 8 51 -5z m-10300 -105 c3 -51 2 -53 -22 -53
-21 0 -26 5 -26 25 0 24 -3 25 -55 25 l-55 0 0 -40 0 -40 56 0 c52 0 55 -1 52
-22 -3 -20 -10 -23 -55 -26 -51 -3 -53 -4 -53 -33 0 -22 5 -29 20 -29 15 0 20
-7 20 -25 0 -24 -2 -25 -70 -25 -64 0 -70 2 -70 21 0 12 8 23 20 26 18 5 20
14 20 104 0 92 -1 99 -20 99 -20 0 -28 28 -13 44 4 3 61 5 127 4 l121 -3 3
-52z m224 47 c77 -22 103 -106 50 -160 l-28 -28 22 -26 c14 -15 33 -26 49 -26
20 0 25 -5 25 -25 0 -24 -3 -25 -55 -25 -48 0 -55 3 -55 19 0 30 -48 81 -76
81 -19 0 -24 -5 -24 -24 0 -15 7 -26 20 -29 12 -3 20 -14 20 -26 0 -19 -6 -21
-65 -21 -63 0 -65 1 -65 25 0 16 6 25 15 25 12 0 15 18 15 100 0 82 -3 100
-15 100 -9 0 -15 9 -15 25 0 24 2 25 73 25 39 0 89 -5 109 -10z m266 -16 c2
-15 -3 -23 -17 -27 -19 -5 -21 -13 -21 -101 0 -89 1 -96 20 -96 15 0 20 -7 20
-25 0 -24 -2 -25 -65 -25 -63 0 -65 1 -65 25 0 18 5 25 20 25 19 0 20 7 20 96
0 87 -2 96 -20 101 -20 5 -27 33 -13 47 4 4 32 6 63 4 47 -3 55 -6 58 -24z
m278 -1 c97 -50 98 -194 2 -253 -27 -16 -51 -20 -130 -20 -98 0 -98 0 -98 25
0 16 6 25 15 25 12 0 15 18 15 100 0 82 -3 100 -15 100 -10 0 -15 10 -15 26
l0 27 94 -5 c66 -4 105 -11 132 -25z m343 -100 c41 -91 60 -123 73 -123 13 0
18 -8 18 -25 0 -24 -2 -25 -65 -25 -63 0 -65 1 -65 25 0 16 6 25 16 25 11 0
14 5 10 16 -3 9 -6 18 -6 20 0 2 -29 4 -65 4 -36 0 -65 -2 -65 -4 0 -2 -3 -11
-6 -20 -4 -11 -1 -16 10 -16 10 0 16 -9 16 -25 0 -24 -3 -25 -60 -25 -57 0
-60 1 -60 25 0 14 6 25 14 25 12 0 96 167 96 190 0 6 -7 10 -15 10 -9 0 -15 9
-15 25 0 25 2 26 57 23 l56 -3 56 -122z m199 100 c2 -16 -2 -23 -12 -23 -9 0
-16 -5 -16 -10 0 -13 43 -80 52 -80 7 0 48 67 48 81 0 5 -7 9 -16 9 -10 0 -14
7 -12 23 3 20 8 22 73 22 65 0 70 -2 73 -22 3 -17 -2 -23 -16 -23 -23 0 -34
-13 -84 -94 -43 -69 -49 -106 -18 -106 15 0 20 -7 20 -25 0 -24 -2 -25 -70
-25 -64 0 -70 2 -70 21 0 12 8 23 20 26 33 9 24 52 -28 128 -31 46 -55 71 -69
73 -22 3 -31 30 -16 46 4 4 37 6 73 4 59 -3 65 -5 68 -25z m-15361 -93 l23
-25 1 35 1 35 13 -30 c8 -16 14 -47 15 -67 0 -20 5 -40 10 -43 6 -4 8 -10 5
-15 -3 -5 -1 -11 4 -15 14 -8 44 53 38 76 -6 23 8 25 17 3 11 -28 6 -47 -21
-86 -24 -36 -25 -41 -14 -78 6 -22 15 -40 19 -40 9 0 64 68 80 100 12 25 12
24 7 -8 -4 -29 -37 -88 -59 -103 -10 -8 2 -49 15 -49 6 0 27 11 47 25 20 14
40 25 45 25 16 0 -27 -52 -55 -66 -29 -15 -29 -16 -13 -41 9 -14 13 -29 8 -33
-4 -4 -36 -11 -70 -14 -67 -7 -78 -1 -78 44 0 21 -10 30 -57 52 -67 32 -82 63
-54 111 16 28 16 30 -14 63 -35 40 -37 61 -11 112 10 20 21 50 25 66 7 28 7
28 29 10 12 -10 32 -29 44 -44z m18691 53 c-500 -2 -1316 -2 -1815 0 -500 1
-91 2 907 2 998 0 1407 -1 908 -2z m5332 -3 c0 -7 -612 -10 -1815 -10 -1203 0
-1815 3 -1815 10 0 7 612 10 1815 10 1203 0 1815 -3 1815 -10z m-19714 -41
c68 -33 28 -84 -91 -115 -99 -27 -245 -10 -245 29 0 26 85 80 155 98 42 11
147 4 181 -12z m7705 -88 c31 -31 36 -59 17 -94 -41 -79 -158 -52 -158 36 0
79 85 114 141 58z m-3289 -54 c100 -49 171 -120 217 -216 34 -73 36 -81 36
-183 0 -58 -3 -109 -7 -113 -3 -4 -15 -4 -26 -1 -17 6 -19 14 -14 74 5 82 -16
165 -60 234 -37 58 -87 100 -165 135 -48 23 -72 27 -143 27 -75 0 -93 -4 -155
-32 -38 -18 -82 -45 -97 -59 l-26 -25 -21 40 -21 41 32 26 c80 67 167 96 284
92 82 -3 99 -7 166 -40z m9188 23 c0 -7 -330 -10 -970 -10 -640 0 -970 3 -970
10 0 7 330 10 970 10 640 0 970 -3 970 -10z m3942 -7 c-272 -2 -713 -2 -980 0
-268 1 -46 2 493 2 539 0 758 -1 487 -2z m-14054 -93 c9 -18 28 -40 41 -49
l23 -15 -3 52 c-2 29 -1 52 2 52 16 0 31 -61 24 -100 -6 -37 -4 -45 21 -71 15
-16 30 -29 34 -29 10 0 31 110 25 133 -6 21 -6 21 9 3 19 -23 19 -27 6 -96 -7
-38 -7 -57 1 -66 17 -21 27 -17 45 18 9 18 23 38 30 46 26 26 16 -37 -11 -65
l-24 -27 29 -20 c37 -26 37 -29 3 -47 -16 -7 -39 -21 -52 -31 -35 -26 -68 -23
-75 7 -7 26 -15 29 -81 26 -56 -3 -97 29 -94 73 4 40 -4 52 -38 61 -15 3 -34
16 -43 28 -15 22 -31 167 -18 167 4 0 28 -7 54 -16 25 -8 48 -14 50 -12 2 2
-4 17 -12 33 l-15 30 26 -26 c14 -14 33 -40 43 -59z m892 -10 c141 -72 220
-209 204 -352 -6 -56 -7 -58 -32 -52 -15 4 -29 8 -31 10 -2 2 -4 36 -5 76 -3
114 -54 196 -153 244 -104 52 -229 31 -314 -52 l-36 -35 -19 37 -19 36 43 39
c67 59 130 80 232 76 65 -3 96 -9 130 -27z m2857 -74 c62 -29 128 -93 154
-149 22 -49 25 -140 7 -201 -18 -60 -100 -139 -160 -154 -51 -13 -98 -15 -122
-6 -13 5 -12 9 9 26 29 22 32 55 10 98 -9 17 -17 30 -19 30 -3 0 -12 3 -21 7
-13 4 -38 -16 -95 -77 l-79 -83 -15 37 c-9 21 -29 44 -46 54 -58 31 -66 40
-54 52 6 6 40 18 75 26 81 18 143 53 147 81 5 35 -46 83 -95 90 l-42 6 19 38
c69 135 199 184 327 125z m4973 4 c9 -5 19 -5 27 1 16 14 75 7 81 -8 2 -7 -3
-13 -12 -13 -13 0 -16 -13 -16 -75 0 -60 -3 -75 -15 -75 -12 0 -15 15 -15 75
0 61 -3 75 -16 75 -8 0 -13 -4 -9 -9 3 -5 0 -13 -6 -17 -6 -4 -16 1 -21 10
-16 28 -28 7 -28 -50 0 -41 4 -54 15 -54 8 0 15 5 15 10 0 6 7 10 15 10 18 0
18 -5 5 -31 -12 -21 -50 -25 -68 -7 -18 18 -15 133 4 152 18 18 23 19 44 6z
m4430 0 c9 -5 19 -5 27 1 16 14 75 7 81 -8 2 -7 -3 -13 -12 -13 -13 0 -16 -13
-16 -75 0 -60 -3 -75 -15 -75 -12 0 -15 15 -15 75 0 60 -3 75 -15 75 -8 0 -15
-7 -15 -15 0 -8 -7 -15 -15 -15 -8 0 -15 7 -15 15 0 8 -4 15 -10 15 -6 0 -10
-27 -10 -60 0 -33 4 -60 10 -60 6 0 10 5 10 10 0 6 7 10 15 10 8 0 15 -6 15
-14 0 -21 -26 -38 -52 -34 -21 3 -23 8 -26 78 -2 62 0 77 14 87 21 15 24 16
44 3z m-6990 -57 c0 -16 -21 -103 -47 -195 -46 -166 -47 -168 -75 -168 -15 0
-28 5 -28 11 0 9 72 267 85 307 3 7 -5 12 -19 12 -15 0 -26 -7 -29 -20 -3 -14
-14 -20 -31 -20 -25 0 -26 3 -26 50 l0 50 85 0 85 0 0 -27z m145 5 c26 -112
75 -340 75 -353 0 -9 -9 -15 -25 -15 -26 0 -29 4 -39 53 -6 23 -11 27 -41 27
-30 0 -35 -4 -41 -27 -3 -16 -7 -34 -10 -40 -5 -18 -54 -17 -54 1 0 7 18 93
40 191 22 98 40 179 40 181 0 2 11 4 25 4 17 0 26 -7 30 -22z m184 -82 l34
-99 35 101 c34 97 37 102 64 102 l28 0 0 -195 0 -195 -30 0 -30 0 -1 103 -1
102 -22 -65 c-17 -48 -27 -65 -41 -65 -14 0 -24 17 -41 65 l-22 65 -1 -102 -1
-103 -30 0 -30 0 0 196 0 195 28 -3 c25 -3 30 -11 61 -102z m381 95 c0 -10
-57 -320 -65 -358 -4 -16 -13 -23 -28 -23 l-23 0 35 195 c34 187 36 195 58
195 13 0 23 -4 23 -9z m130 -186 l0 -195 -30 0 -30 0 0 162 c0 155 -1 161 -18
145 -26 -24 -32 -21 -32 12 0 35 41 70 83 71 l27 0 0 -195z m190 0 l0 -195
-30 0 -30 0 0 162 c0 155 -1 161 -18 145 -26 -24 -32 -21 -32 12 0 35 41 70
83 71 l27 0 0 -195z m209 180 c48 -24 65 -103 37 -170 -16 -37 -42 -55 -80
-55 -24 0 -25 -2 -28 -72 -3 -71 -4 -73 -30 -76 l-28 -3 0 195 0 196 50 0 c28
0 64 -7 79 -15z m165 -82 c17 -51 33 -93 37 -93 3 0 12 19 19 43 7 23 21 66
32 95 17 46 23 52 49 52 l29 0 0 -195 0 -195 -30 0 -30 0 -1 108 0 107 -27
-72 c-18 -48 -32 -73 -42 -73 -11 0 -24 24 -41 73 l-24 72 -3 -108 -3 -108
-27 3 -27 3 -3 180 c-1 98 0 185 3 193 3 8 16 12 32 10 24 -3 30 -11 57 -95z
m-13610 61 l56 -26 -21 -29 c-11 -16 -25 -29 -30 -29 -21 0 3 -20 24 -21 21 0
21 -1 -3 -11 -14 -5 -42 -10 -62 -9 -21 0 -38 -3 -38 -9 0 -5 -6 -7 -14 -4 -8
3 -17 1 -20 -5 -9 -14 49 -42 70 -34 12 4 15 3 10 -5 -12 -20 -60 -13 -95 12
-28 21 -36 23 -66 13 -19 -6 -35 -13 -35 -17 0 -12 72 -70 86 -70 8 0 14 -5
14 -11 0 -17 -41 0 -88 36 -40 31 -72 37 -72 13 0 -5 12 -30 27 -55 l27 -46
-26 17 c-14 9 -31 30 -38 46 -11 26 -14 28 -41 18 -17 -6 -32 -9 -34 -6 -7 7
-8 115 -1 127 4 6 19 10 34 9 22 -3 30 4 50 42 13 25 29 48 35 52 20 13 60 9
78 -8 15 -14 19 -13 45 10 37 32 58 32 128 0z m8394 -29 c36 -30 47 -66 32
-110 -14 -41 -48 -65 -95 -65 -47 0 -71 14 -90 50 -19 37 -19 54 1 95 27 59
101 73 152 30z m-7469 -32 c-25 -27 -15 -24 34 9 51 36 27 1 -33 -47 -33 -26
-60 -50 -60 -52 0 -2 18 6 40 17 45 23 51 18 18 -17 -21 -22 -21 -24 -3 -17
18 7 19 6 5 -11 -14 -17 -14 -18 17 -1 18 9 49 31 70 49 28 25 34 27 25 10
-28 -52 -157 -123 -267 -147 l-30 -6 30 22 c47 36 92 80 75 75 -8 -2 -26 -8
-39 -12 -17 -5 -21 -4 -16 5 6 9 -1 10 -26 6 -27 -6 -20 1 34 30 46 25 64 40
55 45 -15 10 -14 11 42 43 56 32 59 32 29 -1z m21674 -5 c4 -10 8 -10 15 0 5
8 20 12 33 10 22 -3 24 -8 27 -64 2 -47 -1 -64 -13 -74 -13 -11 -21 -11 -36
-2 -14 9 -23 9 -38 1 -36 -23 -51 -5 -51 64 0 35 3 67 7 70 11 12 51 8 56 -5z
m-5665 -125 c-500 -2 -1316 -2 -1815 0 -500 1 -91 2 907 2 998 0 1407 -1 908
-2z m4430 0 c-498 -2 -1317 -2 -1820 0 -502 1 -94 2 907 2 1001 0 1412 -1 913
-2z m-16023 -52 c50 -23 78 -53 107 -116 19 -42 23 -67 23 -155 0 -89 -4 -113
-24 -158 -42 -92 -126 -145 -196 -122 -51 17 -109 88 -129 158 -45 163 9 343
118 393 50 23 52 23 101 0z m10815 -111 c0 -7 -330 -10 -970 -10 -640 0 -970
3 -970 10 0 7 330 10 970 10 640 0 970 -3 970 -10z m4425 0 c-4 -7 -340 -10
-976 -10 -639 0 -969 3 -969 10 0 7 332 10 976 10 647 0 973 -3 969 -10z
m-9087 -40 c29 -27 36 -60 29 -130 -17 -162 -186 -475 -344 -638 -63 -65 -75
-73 -104 -70 -23 2 -41 14 -63 41 -30 38 -31 41 -30 145 0 91 4 118 27 178
117 311 382 570 485 474z m-4706 -22 c65 -30 128 -89 159 -150 30 -58 37 -169
16 -233 l-16 -46 67 62 c158 145 350 219 566 219 287 0 544 -146 664 -377 l37
-73 55 0 c93 0 232 -35 332 -82 192 -92 344 -254 413 -440 10 -27 21 -48 25
-48 17 0 190 174 244 246 33 44 65 84 71 89 7 6 13 13 13 18 1 4 26 49 55 100
30 50 72 125 93 166 53 99 103 156 131 147 55 -17 53 -110 -6 -243 l-30 -68
59 -7 c67 -8 105 -28 126 -69 47 -92 -43 -242 -190 -315 l-71 -35 68 4 c50 4
86 13 132 36 123 61 189 170 274 454 84 277 131 381 223 491 40 47 125 96 168
96 38 0 92 -39 112 -82 10 -20 20 -65 24 -101 7 -65 7 -66 -17 -60 -13 4 -35
12 -49 20 -40 20 -139 17 -178 -7 -46 -29 -76 -98 -68 -159 10 -79 59 -163
135 -233 l69 -64 -53 -114 c-74 -160 -88 -220 -89 -368 0 -94 3 -125 14 -136
10 -9 91 -20 250 -35 129 -12 249 -25 265 -29 58 -16 -414 -5 -530 12 -167 25
-411 79 -391 86 13 4 -1 11 -43 23 -80 22 -117 21 -141 -3 -23 -23 -26 -14 -6
13 8 10 30 21 50 24 38 6 70 41 60 67 -8 22 -55 20 -139 -5 -39 -11 -77 -22
-85 -24 -8 -3 -34 -10 -57 -17 -33 -9 -50 -9 -80 1 -51 17 -65 39 -53 82 8 26
6 35 -8 46 -47 37 -50 37 -123 -17 -42 -32 -75 -50 -85 -46 -8 3 -12 2 -9 -3
7 -12 -4 -19 -36 -24 -13 -3 -36 -11 -51 -18 -27 -12 -28 -15 -28 -91 0 -55 4
-78 13 -78 6 0 3 -6 -8 -12 -24 -13 -69 -58 -63 -63 4 -5 59 14 100 35 32 15
58 1 58 -31 0 -22 36 -39 81 -39 47 0 81 -41 77 -91 -3 -35 0 -42 27 -57 17
-9 34 -21 38 -27 7 -9 0 -165 -8 -174 -2 -2 -24 8 -49 22 l-46 26 0 -23 c0
-12 3 -26 8 -32 4 -5 -3 1 -16 14 -13 13 -25 36 -28 51 -3 14 -16 39 -29 55
l-23 28 -11 -34 c-6 -19 -9 -44 -5 -54 5 -18 5 -18 -11 1 -12 15 -15 29 -9 60
11 62 8 94 -11 115 -22 25 -35 25 -35 3 0 -10 -7 -27 -15 -37 -8 -11 -15 -35
-15 -54 0 -19 -4 -31 -10 -27 -16 10 -12 49 9 104 17 42 18 51 6 67 -13 18
-16 16 -60 -31 -44 -47 -46 -48 -39 -20 4 17 20 41 35 55 20 19 25 30 19 40
-6 8 -10 11 -10 5 -1 -5 -8 2 -16 18 -8 15 -18 27 -23 27 -22 0 -45 -45 -51
-102 -4 -35 -8 -53 -9 -40 -2 38 -16 25 -51 -48 -42 -87 -61 -105 -109 -104
-80 2 -168 74 -264 213 -64 92 -87 133 -87 153 0 7 8 -3 18 -22 26 -51 156
-214 204 -254 54 -47 121 -72 151 -59 14 7 47 55 85 126 80 148 94 222 66 342
-5 19 -5 20 7 1 7 -11 14 -62 17 -113 l5 -94 33 32 c28 27 34 40 34 76 0 80
-30 196 -75 288 -189 390 -674 560 -1060 371 -121 -59 -220 -148 -303 -272 -6
-10 1 9 18 44 29 60 30 63 13 90 l-17 27 23 -23 c16 -17 27 -20 34 -13 7 7 6
15 -3 26 -13 16 -5 20 28 16 15 -2 42 17 42 30 0 5 -10 9 -22 9 l-23 0 25 20
c16 13 34 18 51 14 16 -3 30 1 38 10 22 26 -34 33 -67 9 -42 -30 -52 -35 -52
-24 0 6 23 22 51 36 46 24 53 25 72 12 20 -13 26 -12 63 9 43 26 174 74 198
74 40 0 22 51 -47 135 -23 28 -30 41 -17 30 39 -32 69 -67 92 -107 18 -31 27
-38 53 -38 17 0 34 3 38 6 8 8 -49 100 -98 158 -85 101 -242 194 -390 232 -85
21 -263 24 -350 5 -166 -36 -317 -122 -433 -245 -115 -124 -179 -270 -189
-436 -6 -83 -8 -90 -15 -56 -7 35 1 141 18 219 6 25 4 27 -24 27 -22 0 -46
-13 -83 -45 -29 -25 -58 -44 -64 -42 -6 3 -9 54 -7 148 4 168 -1 184 -65 184
-49 0 -96 -33 -120 -85 -10 -22 -21 -40 -25 -40 -14 0 -80 87 -106 140 -38 77
-38 182 0 255 42 81 144 162 248 196 50 17 172 4 232 -23z m-970 -126 c12 -15
30 -39 39 -52 16 -24 17 -24 36 -7 11 9 24 17 31 17 14 0 29 -51 37 -127 6
-59 8 -62 27 -52 11 6 27 8 35 5 20 -8 12 -67 -19 -139 l-22 -50 -18 23 c-17
21 -17 25 -2 47 8 14 13 27 11 30 -3 2 -10 -5 -17 -16 -6 -12 -16 -18 -22 -15
-11 7 51 -112 97 -186 12 -19 27 -46 34 -60 12 -24 11 -24 -4 -5 -9 11 -35 52
-58 92 -41 70 -43 72 -82 73 -22 0 -67 12 -100 25 -99 41 -138 31 -115 -30 6
-15 9 -29 7 -32 -2 -2 -28 1 -58 6 l-54 9 45 1 45 1 0 37 c0 36 2 38 34 43 31
4 33 6 18 19 -21 17 -22 50 -2 57 11 5 10 13 -10 44 -37 58 -41 85 -16 107 16
14 21 29 21 71 0 92 35 119 82 64z m8955 17 c8 -8 13 -8 17 0 11 18 86 14 86
-4 0 -8 -7 -15 -15 -15 -12 0 -15 -15 -15 -75 0 -60 -3 -75 -15 -75 -12 0 -15
15 -15 75 0 61 -3 75 -16 75 -8 0 -13 -4 -9 -9 3 -5 0 -13 -6 -17 -6 -4 -16 1
-21 10 -18 31 -28 15 -28 -44 0 -33 2 -60 5 -60 3 0 14 5 25 12 25 16 35 5 20
-21 -12 -23 -49 -28 -68 -9 -18 18 -15 133 4 152 18 19 36 20 51 5z m4424 1
c13 -7 19 -7 19 0 0 13 77 13 85 0 3 -6 -1 -13 -9 -16 -13 -5 -16 -22 -16 -80
0 -59 -3 -74 -15 -74 -12 0 -15 15 -15 75 0 60 -3 75 -15 75 -8 0 -15 -7 -15
-15 0 -8 -7 -15 -15 -15 -8 0 -15 7 -15 15 0 8 -4 15 -10 15 -6 0 -10 -27 -10
-60 0 -33 4 -60 10 -60 6 0 10 5 10 10 0 6 7 10 15 10 8 0 15 -6 15 -14 0 -21
-26 -38 -52 -34 -21 3 -23 8 -26 76 -4 93 11 117 59 92z m3399 -131 c0 -8 4
-8 14 1 8 6 25 10 38 8 21 -3 23 -9 26 -64 2 -47 -1 -64 -13 -74 -13 -11 -21
-11 -36 -2 -15 9 -23 9 -38 0 -33 -20 -51 5 -51 72 0 31 3 60 7 63 11 11 53 8
53 -4z m-13334 -45 c-5 -13 -2 -15 11 -9 36 15 58 11 61 -12 3 -19 7 -21 28
-13 14 6 45 10 70 10 36 0 46 -4 55 -22 6 -13 35 -35 68 -50 32 -15 62 -35 65
-44 10 -27 -22 -52 -79 -64 l-53 -11 11 -29 c6 -16 8 -32 4 -36 -11 -11 -73
-6 -129 11 -28 8 -53 15 -55 15 -2 0 -3 -10 -3 -23 0 -59 -45 -50 -127 26 -32
29 -40 43 -31 49 20 12 -20 10 -112 -8 -45 -8 -86 -14 -92 -12 -6 2 32 12 85
22 65 12 97 23 102 33 8 22 0 26 -25 13 -12 -6 -24 -9 -27 -7 -2 3 12 11 31
18 20 7 36 16 36 19 0 4 23 33 50 64 28 31 50 61 50 67 0 5 3 9 6 9 3 0 3 -7
0 -16z m-1458 -48 c-8 -66 -145 -331 -207 -398 -20 -22 -21 -28 -8 -28 9 0 28
-5 42 -12 19 -9 25 -19 25 -43 0 -18 7 -38 15 -45 22 -18 18 -38 -7 -45 -13
-4 -38 -18 -56 -32 -21 -15 -39 -22 -52 -18 -11 3 -30 -1 -44 -10 -24 -16 -27
-16 -65 6 -22 12 -42 28 -45 36 -3 8 5 36 19 62 22 45 28 49 69 55 25 4 48 11
51 16 3 4 -4 6 -14 3 -56 -15 -153 63 -193 155 -12 26 -38 66 -60 90 -38 42
-68 97 -68 124 1 7 8 -3 16 -21 8 -19 39 -60 68 -91 l53 -56 16 28 c11 19 24
28 39 27 17 -1 19 -2 5 -6 -20 -5 -47 -52 -47 -83 0 -12 25 -46 58 -80 88 -91
120 -82 215 63 95 144 167 279 167 314 0 18 3 33 6 33 4 0 4 -20 2 -44z m5983
-1326 c-1 -739 -3 -1346 -5 -1347 -1 -1 -195 85 -430 192 -236 107 -433 195
-440 195 -6 0 -202 -88 -436 -194 -234 -107 -426 -193 -427 -192 -2 1 -5 2668
-4 2689 1 4 393 6 872 5 l872 -3 -2 -1345z m4049 1290 c0 -7 -610 -10 -1810
-10 -1200 0 -1810 3 -1810 10 0 7 610 10 1810 10 1200 0 1810 -3 1810 -10z
m4430 0 c0 -7 -612 -10 -1815 -10 -1203 0 -1815 3 -1815 10 0 7 612 10 1815
10 1203 0 1815 -3 1815 -10z m-17945 -115 c145 -13 688 -106 704 -121 2 -2 -8
-21 -22 -41 -14 -21 -32 -51 -39 -68 -7 -16 -23 -39 -35 -51 -31 -31 -39 -86
-20 -135 14 -34 14 -43 1 -67 -27 -53 -16 -128 26 -177 10 -11 20 -32 24 -47
9 -40 53 -86 109 -114 46 -24 56 -25 143 -19 80 6 99 11 128 34 50 39 87 97
93 144 3 23 12 54 19 69 21 42 17 107 -10 154 -12 22 -26 65 -30 94 -9 64 -26
101 -63 129 l-28 22 35 -7 c71 -13 440 -117 644 -181 166 -52 221 -66 256 -62
99 9 225 2 260 -14 l35 -16 -50 6 c-74 11 -261 7 -335 -6 -36 -7 -135 -34
-220 -61 -85 -27 -202 -60 -260 -75 -58 -14 -119 -32 -136 -39 -61 -28 -121
-153 -144 -300 -14 -88 5 -157 61 -220 21 -24 35 -47 31 -51 -4 -5 -2 -5 5 -1
7 4 30 -5 52 -19 87 -58 312 -129 505 -160 16 -2 31 -6 33 -9 2 -2 -10 -46
-27 -97 -36 -112 -45 -162 -36 -221 9 -56 14 -64 58 -82 l37 -16 -25 55 c-31
66 -26 98 5 38 29 -57 43 -54 24 5 -19 63 -32 132 -24 132 3 0 14 -19 23 -42
10 -23 20 -39 23 -37 2 3 -2 41 -10 84 -18 102 -19 163 -1 90 7 -27 17 -59 23
-70 21 -37 88 -93 173 -144 47 -28 81 -51 77 -51 -13 0 -130 62 -175 92 l-44
30 18 -28 c21 -30 23 -30 -32 -7 -32 13 30 -79 101 -150 52 -52 62 -66 39 -54
-18 9 -47 29 -65 44 -18 15 -29 21 -24 13 7 -12 3 -11 -18 3 -30 19 -38 5 -14
-26 27 -37 536 -233 640 -247 40 -5 106 -19 147 -30 41 -11 109 -20 150 -21
l75 -1 -50 -15 c-47 -15 -56 -14 -135 5 -47 11 -86 19 -88 18 -3 -4 123 -44
273 -88 160 -46 406 -70 740 -72 232 -1 296 2 375 17 181 34 165 36 215 -16
52 -54 121 -92 207 -112 75 -18 262 -20 342 -4 l57 12 -7 43 c-5 36 -3 44 10
44 8 0 19 12 22 26 l6 25 22 -20 c25 -23 74 -43 87 -35 16 9 10 25 -31 85 -22
32 -40 61 -40 64 0 3 18 5 40 5 44 0 48 5 24 31 -14 16 -13 17 20 17 29 0 41
-7 65 -36 81 -104 87 -144 42 -274 -93 -261 -267 -580 -474 -865 l-82 -113
-2348 0 -2347 0 0 1711 1 1711 47 -6 c26 -3 79 -8 117 -11z m11835 -45 c0 -7
-330 -10 -970 -10 -640 0 -970 3 -970 10 0 7 330 10 970 10 640 0 970 -3 970
-10z m4430 0 c0 -7 -332 -10 -975 -10 -643 0 -975 3 -975 10 0 7 332 10 975
10 643 0 975 -3 975 -10z m-15417 -122 c13 -24 27 -55 31 -70 9 -40 21 -34 39
20 l16 47 0 -52 c1 -36 -5 -63 -19 -85 -19 -32 -29 -128 -12 -128 14 0 72 58
87 86 l15 29 0 -28 c0 -41 -13 -60 -70 -101 l-50 -36 0 -61 c0 -33 3 -59 8
-57 40 18 126 75 141 94 22 28 33 31 24 7 -9 -28 -63 -80 -94 -94 -16 -6 -29
-15 -29 -20 0 -5 -6 -9 -14 -9 -21 0 -28 -16 -21 -49 l6 -28 80 18 c65 14 78
15 68 3 -11 -13 -74 -35 -114 -39 -17 -2 -20 -9 -19 -49 l0 -48 -30 5 c-97 17
-138 31 -153 54 -14 21 -14 25 1 42 9 9 16 23 16 29 0 7 -25 39 -55 72 -70 76
-73 106 -16 160 l38 36 -18 45 c-30 74 -26 88 46 162 36 37 65 72 65 77 0 18
8 10 33 -32z m3178 -105 c-13 -26 -15 -69 -7 -149 l8 -72 25 13 c32 17 58 9
87 -26 22 -25 28 -28 51 -19 30 11 69 4 85 -15 9 -11 5 -12 -22 -3 -26 8 -42
7 -71 -5 -34 -15 -37 -15 -37 1 0 28 -29 62 -54 62 -13 0 -36 -10 -51 -22 -26
-20 -27 -24 -23 -94 6 -131 51 -157 185 -109 143 51 317 134 346 165 15 17 27
26 27 21 0 -35 -256 -184 -392 -226 l-56 -18 21 -29 c21 -28 21 -30 4 -59 -9
-17 -17 -44 -17 -60 0 -27 -2 -29 -27 -22 -16 5 -45 7 -66 6 -26 -1 -45 5 -58
18 -10 10 -30 19 -45 19 -19 0 -28 8 -40 35 -23 56 -19 71 33 99 l47 27 43
-21 c56 -26 57 -26 18 13 -39 39 -62 126 -49 186 4 20 8 86 9 146 0 69 5 118
13 133 15 26 27 30 13 5z m14267 -1235 l2 -1048 -4200 0 -4200 0 0 1043 c0
574 3 1047 7 1050 3 4 1892 6 4197 4 l4191 -2 3 -1047z m-16051 760 c46 -43
14 -128 -47 -128 -41 0 -80 35 -80 73 0 67 78 101 127 55z m3227 -110 c-11
-69 56 -278 120 -375 19 -29 30 -53 23 -53 -17 0 52 -68 106 -102 55 -36 61
-46 15 -22 -62 31 -180 163 -220 244 -61 123 -86 267 -58 321 15 28 19 24 14
-13z m-4240 -76 c24 -23 69 -55 100 -72 31 -18 56 -34 56 -36 0 -8 -72 26
-115 55 -40 27 -42 27 -37 7 4 -17 2 -19 -9 -8 -24 22 -30 13 -13 -20 9 -18
42 -59 73 -92 41 -43 48 -54 26 -41 -16 10 -38 25 -47 33 -10 8 -18 12 -18 7
0 -4 -7 -2 -15 5 -9 7 -18 10 -22 7 -11 -12 45 -82 97 -121 59 -45 74 -64 34
-43 -37 20 -133 102 -168 144 -31 37 -66 123 -41 103 8 -6 17 -20 20 -31 4
-10 10 -19 14 -19 5 0 0 30 -10 67 -24 86 -23 98 2 50 25 -47 31 -44 19 8 -5
22 -9 54 -9 70 l1 30 9 -31 c5 -17 29 -50 53 -72z m4186 16 c-1 -57 25 -212
45 -268 9 -25 31 -73 50 -108 19 -34 35 -64 35 -67 0 -4 -79 -42 -134 -64 -36
-15 -193 -30 -308 -31 -49 0 -88 -4 -88 -9 0 -4 -52 -11 -115 -14 -96 -4 -122
-2 -162 13 -26 10 -49 25 -51 34 -2 8 9 42 23 75 16 36 24 65 19 73 -4 7 7 1
25 -15 18 -15 44 -30 58 -33 14 -4 40 -22 57 -42 32 -35 37 -36 168 -58 20 -4
61 -3 91 0 l55 7 7 55 c4 31 3 95 0 142 -7 83 -9 88 -45 123 -20 19 -40 48
-44 63 -4 15 -18 39 -31 52 l-24 24 32 2 c34 1 38 2 77 10 14 4 61 14 105 24
44 10 85 22 92 27 7 5 16 6 21 3 6 -3 15 1 22 9 19 22 21 19 20 -27z m-2949
-108 c35 -16 71 -28 79 -25 9 3 47 7 85 9 39 2 108 10 154 16 98 15 216 8 284
-15 26 -10 46 -19 45 -21 -2 -2 -35 2 -73 8 -83 12 -336 5 -413 -12 -68 -15
-102 -8 -177 35 -74 43 -67 45 16 5z m1658 -46 c30 -38 28 -64 -6 -64 -21 0
-24 -3 -15 -12 7 -7 12 -19 12 -27 0 -11 -6 -8 -20 9 -16 21 -27 25 -73 26
l-55 0 76 -33 c42 -18 79 -33 81 -33 2 0 2 -2 -1 -5 -3 -3 -30 6 -61 20 -99
43 -250 92 -322 104 -119 19 -122 20 -50 16 59 -3 189 -34 258 -60 11 -5 17
-2 17 7 0 8 14 27 31 44 l31 29 -4 -42 c-3 -42 4 -55 18 -32 3 6 15 9 25 6 16
-4 19 1 19 34 0 46 11 49 39 13z m1550 -127 c57 -83 166 -146 300 -172 95 -20
168 -15 256 15 74 25 161 85 196 133 16 22 29 36 29 30 0 -17 -54 -86 -100
-127 -23 -21 -68 -50 -99 -65 -48 -22 -69 -26 -146 -26 -241 1 -456 133 -489
300 -5 25 -4 24 8 -7 8 -21 28 -57 45 -81z m1211 -241 c-20 -97 -74 -192 -153
-271 -69 -68 -188 -150 -210 -142 -5 1 36 45 93 97 152 141 216 240 257 398
l18 67 3 -48 c2 -27 -2 -72 -8 -101z m-50 56 c0 -21 -67 -143 -100 -184 -43
-53 -130 -92 -201 -93 -32 0 -60 3 -63 6 -15 15 11 42 73 79 43 25 99 73 159
135 84 88 93 95 112 83 11 -7 20 -19 20 -26z m-4196 -55 c13 -13 25 -29 28
-37 3 -10 14 -10 56 4 28 10 60 15 70 12 11 -4 48 -35 83 -70 l64 -64 -30 -15
c-16 -9 -47 -21 -68 -28 -31 -11 -35 -15 -20 -23 10 -5 31 -13 48 -17 26 -6
23 -7 -20 -8 -29 -1 -59 5 -71 13 -11 8 -43 17 -72 21 l-52 6 21 -35 c11 -19
33 -41 49 -48 37 -16 18 -30 -22 -16 -17 6 -38 27 -54 54 -15 25 -34 48 -43
53 -19 9 -101 14 -101 6 0 -19 63 -126 82 -139 20 -14 20 -16 4 -16 -24 0 -67
48 -91 99 -29 66 -95 67 -79 2 14 -62 21 -110 14 -106 -16 10 -40 75 -40 109
0 36 0 36 -45 36 -41 0 -45 2 -45 24 0 13 5 26 11 28 5 2 15 23 20 48 6 24 15
50 21 57 14 17 43 16 58 -1 15 -19 36 -11 87 36 52 46 100 52 137 15z m2813
-147 c76 -17 183 -44 238 -62 71 -22 122 -32 175 -33 41 -1 90 -5 108 -9 61
-14 28 -56 -45 -56 -58 0 -235 36 -312 64 -72 26 -410 81 -439 72 -22 -7 -71
6 -74 19 -5 17 63 34 139 34 45 1 124 -10 210 -29z m-521 -84 c-14 -34 -14
-36 4 -36 10 0 48 7 83 15 42 10 88 13 133 9 177 -15 167 -14 261 -15 40 0 80
-2 90 -4 40 -7 79 -18 88 -24 6 -3 16 -6 23 -7 8 -2 21 -6 30 -10 18 -7 28
-10 80 -20 17 -3 32 -9 32 -13 0 -18 430 -16 533 3 48 9 92 14 97 11 6 -3 10
-1 10 4 0 13 59 14 78 2 12 -7 11 -14 -2 -39 -25 -49 -124 -98 -237 -118 -58
-10 -201 -19 -205 -13 -2 3 -16 4 -32 1 -15 -2 -100 10 -188 27 -87 16 -211
33 -274 37 -114 6 -155 10 -155 13 0 2 -42 3 -93 4 -107 2 -118 -9 -44 -47 26
-13 53 -35 61 -47 12 -21 11 -25 -13 -46 -15 -13 -37 -23 -49 -23 -12 0 -32
-3 -44 -6 -19 -5 -20 -10 -12 -31 5 -14 7 -29 3 -34 -9 -15 -58 -10 -126 11
-34 11 -64 20 -65 20 -1 0 -3 -15 -5 -32 -4 -40 -25 -40 -76 -1 -21 16 -49 26
-73 27 -22 1 -45 8 -52 15 -9 9 -3 11 33 5 44 -7 45 -7 28 13 -23 26 -23 33 4
33 12 0 19 3 15 6 -3 3 -64 -2 -136 -11 -125 -16 -209 -16 -108 0 36 6 53 14
69 36 17 22 25 26 35 18 7 -6 13 -18 13 -25 0 -22 21 -16 27 7 3 12 17 22 32
25 29 6 144 125 155 161 9 27 -22 46 -59 37 -14 -3 -25 -4 -25 -1 0 10 63 107
67 103 2 -2 -3 -20 -11 -40z m-466 -120 c0 -8 -120 -86 -175 -114 -121 -60
-300 -113 -430 -126 -47 -5 -48 -4 -15 5 233 68 399 131 545 207 57 30 75 36
75 28z m-462 -263 c-21 -9 -38 -20 -38 -24 0 -12 7 -11 64 6 27 8 51 13 54 11
7 -7 -36 -26 -127 -57 l-86 -29 58 3 c31 2 57 0 57 -5 0 -4 -17 -15 -37 -25
-36 -16 -37 -17 -13 -21 24 -4 24 -5 -10 -18 -35 -14 -35 -14 20 -8 30 3 86
16 123 28 76 25 77 20 2 -17 -73 -37 -162 -50 -281 -42 -55 4 -106 10 -112 14
-7 4 20 15 60 25 40 9 84 23 98 31 25 14 25 14 -15 15 -47 0 -86 19 -45 21
l25 1 -25 8 c-14 4 -41 9 -60 10 -32 2 119 27 180 30 l25 1 -24 10 c-37 15
-12 31 61 39 87 10 88 10 46 -7z m2063 -193 c102 -35 179 -95 179 -141 0 -38
-42 -52 -148 -47 -111 6 -210 35 -281 83 -56 38 -70 59 -55 83 27 43 205 56
305 22z m-1710 -2100 c14 -8 19 -21 19 -51 l0 -40 -44 6 c-67 10 -76 -9 -76
-167 l0 -127 58 -3 57 -3 3 -42 3 -43 -60 0 -61 0 -2 -182 -3 -183 -47 -3 -48
-3 0 185 c0 179 -1 186 -20 186 -17 0 -20 7 -20 41 0 32 4 42 19 46 17 4 19
18 23 146 3 120 6 147 23 177 34 58 123 88 176 60z m-2833 -222 l2 -218 41 30
c130 94 302 5 325 -168 13 -103 -36 -211 -115 -252 -77 -39 -193 -20 -238 38
-11 14 -13 11 -13 -17 l0 -32 -47 3 -48 3 -3 405 c-1 223 0 411 3 418 3 9 19
12 47 10 l43 -3 3 -217z m1963 7 c0 -118 0 -249 0 -290 0 -41 0 -133 0 -205
l-1 -130 -45 0 -45 0 0 420 0 420 45 0 45 0 1 -215z m219 -205 l0 -420 -45 0
-45 0 0 420 0 420 45 0 45 0 0 -420z m2730 0 l0 -420 -45 0 c-44 0 -45 1 -45
32 l0 31 -22 -20 c-64 -58 -170 -71 -243 -30 -78 44 -124 164 -105 270 32 168
214 242 335 136 l35 -31 0 226 0 226 45 0 45 0 0 -420z m1918 -3 l2 -418 -47
3 -48 3 -3 405 c-1 223 0 411 3 418 3 9 19 12 47 10 l43 -3 3 -418z m1602 3
l0 -420 -45 0 c-43 0 -45 1 -45 30 l0 31 -41 -33 c-38 -31 -46 -33 -118 -33
-67 0 -83 4 -118 27 -90 60 -123 219 -68 328 63 123 211 156 310 69 l35 -31 0
226 0 226 45 0 45 0 0 -420z m-6781 -36 c94 -205 171 -375 171 -378 0 -4 -23
-6 -51 -4 l-50 3 -38 85 -39 85 -167 3 -166 2 -42 -90 -41 -90 -48 0 c-26 0
-48 4 -48 9 0 14 341 753 346 748 1 -1 79 -169 173 -373z m-4524 335 c123 -23
224 -90 273 -183 25 -47 27 -60 27 -171 0 -106 -3 -125 -23 -163 -75 -141
-204 -201 -429 -202 l-103 0 0 365 0 365 98 0 c54 0 125 -5 157 -11z m8766
-389 c34 -82 65 -147 68 -144 3 3 33 65 66 137 l61 132 38 3 c74 6 75 9 -50
-240 -80 -160 -119 -227 -124 -217 -5 8 -34 73 -65 144 -32 72 -58 131 -60
132 -1 2 -30 -62 -65 -142 -35 -80 -65 -145 -67 -145 -8 0 -231 458 -226 464
4 3 26 6 50 6 l44 0 36 -77 c19 -43 48 -107 65 -143 l29 -65 66 153 c36 83 66
152 68 152 1 0 31 -67 66 -150z m-8126 129 c79 -22 145 -119 145 -213 l0 -36
-170 0 c-189 0 -186 1 -153 -67 21 -46 67 -73 121 -73 36 0 49 6 86 40 l44 41
36 -18 c20 -9 36 -20 36 -25 0 -18 -65 -78 -106 -98 -37 -18 -58 -21 -118 -18
-92 4 -139 32 -180 107 -24 44 -28 64 -28 125 0 178 125 280 287 235z m392 0
c34 -13 73 -48 73 -65 0 -8 -14 -21 -31 -29 -27 -14 -33 -15 -47 -2 -29 24
-50 27 -73 8 -36 -29 -18 -55 65 -94 91 -44 126 -83 126 -140 0 -86 -66 -147
-158 -147 -61 0 -99 17 -136 60 -31 37 -28 44 20 60 32 11 37 10 61 -14 31
-31 75 -34 103 -6 38 38 21 68 -69 115 -93 49 -114 73 -114 130 0 54 24 92 74
117 39 21 66 22 106 7z m688 -8 c22 -10 49 -28 60 -41 l20 -22 5 33 c5 32 7
34 45 34 l40 0 0 -280 0 -281 -25 -49 c-30 -57 -65 -81 -138 -95 -70 -13 -147
2 -192 38 -38 31 -80 103 -80 139 0 20 5 23 43 23 42 0 44 -1 56 -40 16 -54
58 -80 127 -80 88 0 124 51 124 176 l0 58 -27 -26 c-36 -35 -73 -48 -133 -48
-89 0 -145 37 -186 125 -58 123 -13 274 99 330 60 30 107 31 162 6z m591 -1
c69 -34 78 -64 82 -272 l4 -178 -45 0 -45 0 -3 163 c-3 132 -7 168 -21 189
-31 47 -132 41 -166 -10 -14 -21 -18 -55 -20 -184 l-4 -158 -44 0 -44 0 2 228
3 227 43 3 c40 3 42 2 42 -24 0 -25 1 -26 18 -11 52 48 132 58 198 27z m3727
1 c7 -7 5 -22 -8 -50 -15 -34 -21 -39 -36 -31 -48 26 -113 -3 -128 -58 -6 -20
-11 -99 -11 -174 l0 -138 -45 0 -45 0 0 231 0 230 42 -3 c39 -3 43 -6 48 -33
6 -29 6 -29 17 -9 26 46 132 69 166 35z m309 9 c79 -22 135 -99 145 -196 l6
-54 -172 0 c-189 0 -185 2 -157 -65 21 -50 69 -77 129 -72 39 3 55 11 86 41
l38 37 36 -17 c21 -10 37 -21 37 -26 0 -18 -65 -78 -106 -98 -37 -18 -58 -21
-118 -18 -92 4 -139 32 -180 108 -25 45 -29 65 -29 124 0 175 127 280 285 236z
m473 -1 c80 -22 145 -120 145 -218 l0 -31 -170 0 c-188 0 -184 2 -156 -65 19
-45 69 -75 124 -75 36 0 49 6 86 40 l44 41 36 -18 c20 -9 36 -20 36 -25 0 -18
-65 -78 -106 -98 -37 -18 -58 -21 -118 -18 -92 4 -139 32 -180 108 -25 45 -29
65 -29 124 0 177 126 279 288 235z m1340 0 c56 -14 131 -79 156 -134 36 -79
20 -187 -38 -254 -47 -56 -105 -81 -184 -81 -142 1 -242 98 -243 235 0 166
145 275 309 234z m1263 -16 c59 -44 66 -72 71 -266 l3 -178 -48 3 -49 3 -5
165 c-3 91 -9 173 -14 182 -10 21 -37 30 -88 30 -81 -1 -98 -43 -98 -237 l0
-145 -45 0 -45 0 0 231 0 230 42 -3 c36 -3 43 -7 48 -28 4 -18 8 -21 14 -11 5
7 27 22 50 32 51 24 126 20 164 -8z m708 -1 c83 -43 134 -122 134 -208 0 -145
-98 -244 -241 -244 -123 0 -216 72 -239 186 -25 122 39 236 157 280 50 19 138
12 189 -14z m445 17 c19 -7 48 -25 66 -42 l32 -30 3 34 c3 32 5 34 43 34 l40
0 3 -227 2 -228 -45 0 c-44 0 -45 1 -45 31 l0 31 -35 -31 c-43 -38 -69 -45
-145 -39 -48 3 -67 10 -97 35 -53 41 -84 102 -90 173 -8 82 11 142 61 196 59
65 133 87 207 63z m1422 -8 c25 -10 27 -15 27 -66 0 -30 -2 -55 -5 -55 -2 0
-21 11 -41 25 -73 49 -169 24 -211 -55 -36 -67 -28 -128 24 -182 52 -55 128
-60 197 -13 l36 24 0 -58 c0 -57 -1 -59 -31 -70 -54 -19 -157 -14 -206 10
-139 67 -178 257 -76 370 36 40 73 64 123 80 31 10 126 5 163 -10z m398 4
c173 -59 220 -275 87 -402 -46 -44 -97 -63 -170 -63 -80 0 -133 24 -181 80
-42 49 -57 93 -57 163 0 162 164 275 321 222z m496 4 c15 -5 40 -22 54 -35
l27 -25 27 25 c56 52 144 58 199 15 54 -42 60 -69 64 -262 l4 -178 -49 3 -48
3 -5 165 c-3 103 -10 173 -17 186 -24 41 -93 36 -127 -9 -19 -26 -21 -45 -24
-188 l-3 -159 -43 0 -43 0 -5 158 c-3 96 -10 167 -18 184 -16 33 -54 48 -96
36 -51 -13 -64 -60 -64 -233 l0 -145 -45 0 -45 0 0 231 0 230 42 -3 c35 -2 43
-7 48 -27 5 -22 6 -23 20 -6 32 39 96 54 147 34z m-11559 -231 l2 -228 -45 0
-45 0 0 223 c0 123 3 227 7 231 4 4 23 6 43 4 l35 -3 3 -227z m2094 92 c40
-77 76 -140 79 -140 3 0 32 55 64 123 32 67 65 130 73 140 15 17 86 24 96 9 4
-7 -311 -628 -350 -690 -12 -17 -24 -22 -59 -22 -27 0 -45 5 -45 12 0 6 38 82
85 169 l85 159 -100 180 c-55 100 -100 185 -100 190 0 6 22 10 49 10 l50 0 73
-140z m1958 -10 l0 -40 -110 0 -110 0 0 40 0 40 110 0 110 0 0 -40z m1860 0
l0 -41 -107 3 c-104 3 -108 4 -111 26 -7 49 0 52 113 52 l105 0 0 -40z m-8276
14 c22 -8 20 -41 -3 -54 -13 -6 -227 -10 -626 -10 -602 0 -645 2 -645 33 0 36
11 37 641 37 340 0 624 -3 633 -6z m16334 -6 c16 -16 15 -23 -4 -42 -14 -14
-84 -16 -625 -16 -402 0 -617 4 -630 10 -19 10 -26 40 -12 53 3 4 288 7 633 7
473 0 629 -3 638 -12z"/>
<path d="M26085 12372 c-4 -23 -12 -45 -16 -48 -5 -3 -7 -9 -4 -14 3 -5 0 -12
-6 -16 -8 -4 -9 -3 -5 4 5 8 2 10 -8 6 -9 -3 -13 -11 -10 -16 8 -13 -15 -28
-43 -28 -15 0 -20 -5 -18 -17 2 -10 4 -19 5 -20 2 -2 3 -9 4 -15 2 -20 73 -11
120 15 45 25 52 47 20 61 -18 8 -21 16 -17 45 3 20 0 47 -5 61 -10 24 -11 23
-17 -18z"/>
<path d="M26983 11850 c-77 -34 -108 -123 -79 -222 27 -94 105 -147 188 -129
56 13 87 37 109 84 57 126 -27 288 -148 287 -15 0 -47 -9 -70 -20z m130 -80
c47 -55 47 -153 0 -190 -56 -44 -121 -12 -143 70 -22 83 14 150 81 150 29 0
43 -7 62 -30z"/>
<path d="M26367 11803 c-4 -3 -7 -13 -7 -22 0 -9 -18 -23 -40 -33 -30 -12 -45
-26 -56 -53 -29 -70 7 -129 87 -143 42 -7 44 -10 50 -47 4 -22 5 -42 3 -44 -3
-3 -26 11 -69 43 -6 5 -24 6 -39 2 -27 -7 -28 -8 -21 -59 4 -29 10 -55 14 -59
10 -11 61 3 61 17 0 9 8 10 35 1 23 -7 35 -17 35 -28 0 -13 8 -18 25 -18 18 0
25 5 25 20 0 13 10 24 28 31 51 20 72 48 72 100 0 40 -4 51 -31 73 -20 17 -43
26 -65 26 -36 0 -39 3 -48 58 -6 37 7 42 38 13 15 -13 30 -18 49 -14 29 6 33
21 21 82 -7 34 -33 42 -56 17 -18 -19 -68 -1 -68 25 0 19 -29 27 -43 12z"/>
<path d="M26654 11779 c-46 -26 -50 -31 -46 -58 l4 -30 40 20 c22 11 41 19 43
17 1 -2 8 -41 14 -88 7 -47 15 -95 17 -106 5 -19 0 -22 -40 -28 -40 -6 -46
-10 -46 -31 0 -13 5 -27 10 -30 6 -3 62 2 126 11 114 17 115 18 112 43 -3 23
-7 26 -46 26 -23 0 -42 0 -43 0 0 0 -10 63 -23 140 -21 135 -23 140 -46 142
-14 1 -48 -12 -76 -28z"/>
<path d="M2692 12122 c-9 -7 -12 -84 -10 -353 l3 -344 23 -3 c52 -8 52 -5 52
352 0 245 -3 335 -12 344 -14 14 -37 15 -56 4z"/>
<path d="M3000 12111 c-6 -13 -10 -137 -10 -336 0 -199 4 -323 10 -336 12 -21
50 -25 68 -7 17 17 17 669 0 686 -18 18 -56 14 -68 -7z"/>
<path d="M3325 12117 c-3 -6 -4 -165 -3 -352 l3 -340 23 -3 c52 -8 52 -5 52
354 0 319 -1 334 -19 344 -26 14 -51 13 -56 -3z"/>
<path d="M9906 11984 c-14 -13 -16 -59 -16 -343 0 -305 1 -329 18 -344 25 -23
38 -21 56 5 14 19 16 69 16 344 0 298 -1 322 -18 337 -23 21 -36 21 -56 1z"/>
<path d="M10226 11984 c-14 -13 -16 -59 -16 -344 0 -285 2 -331 16 -344 18
-19 20 -19 45 -6 18 10 19 25 19 348 0 342 -2 362 -36 362 -7 0 -20 -7 -28
-16z"/>
<path d="M10540 11640 l0 -350 28 0 c15 0 33 5 40 12 9 9 12 98 12 338 0 240
-3 329 -12 338 -7 7 -25 12 -40 12 l-28 0 0 -350z"/>
<path d="M17333 11622 c-65 -35 -88 -109 -59 -187 14 -35 26 -48 60 -64 41
-20 58 -21 530 -21 472 0 488 1 527 21 96 48 92 214 -6 255 -28 11 -120 14
-527 14 -448 -1 -496 -2 -525 -18z"/>
<path d="M17333 10432 c-65 -35 -88 -109 -59 -187 14 -35 26 -48 60 -64 41
-20 58 -21 527 -21 458 0 486 1 527 20 31 14 47 29 57 54 21 50 19 115 -5 154
-38 62 -38 62 -582 62 -448 -1 -496 -2 -525 -18z"/>
<path d="M3812 10463 c-60 -29 -102 -100 -102 -173 -1 -66 -5 -70 -85 -63 -92
7 -136 -1 -175 -34 -47 -39 -72 -95 -68 -156 l3 -52 70 -6 c79 -6 116 -22 161
-71 42 -44 61 -83 68 -143 4 -35 3 -44 -3 -30 -5 11 -10 31 -11 45 -1 18 -7
11 -21 -30 -22 -60 -20 -130 6 -180 21 -41 80 -88 127 -101 76 -20 179 18 225
83 25 36 28 52 32 131 l3 89 37 -6 c111 -19 138 -18 183 2 63 28 100 79 106
148 5 65 -9 104 -54 144 -51 45 -87 50 -215 34 -61 -8 -112 -14 -114 -12 -1 2
13 53 32 113 37 119 37 156 3 213 -39 63 -138 90 -208 55z"/>
<path d="M19518 9860 c-87 -26 -131 -84 -136 -180 -9 -155 71 -260 198 -260
144 0 224 134 176 294 -35 116 -135 177 -238 146z m95 -81 c58 -26 91 -144 61
-218 -42 -106 -170 -83 -204 37 -35 129 42 227 143 181z"/>
<path d="M19071 9782 c-57 -31 -99 -142 -53 -142 41 0 62 13 62 36 0 45 80 72
114 38 44 -44 31 -83 -75 -226 -61 -81 -79 -112 -74 -128 5 -14 12 -19 28 -15
12 3 80 14 151 24 70 11 130 21 131 23 1 2 0 18 -2 37 -5 32 -7 33 -42 28 -20
-3 -58 -9 -85 -13 l-48 -7 55 82 c64 92 76 137 56 195 -27 79 -135 112 -218
68z"/>
<path d="M18697 9783 c-4 -3 -7 -16 -7 -29 0 -15 -8 -24 -24 -28 -68 -17 -117
-98 -96 -160 17 -51 51 -77 112 -84 l53 -7 7 -50 c4 -27 5 -51 3 -53 -5 -6
-60 25 -75 43 -9 11 -22 14 -49 9 -20 -4 -37 -8 -38 -9 -3 -2 16 -113 22 -131
6 -20 70 -1 68 20 -1 12 4 15 15 11 10 -4 26 -10 37 -13 29 -7 45 -22 45 -41
0 -14 7 -17 30 -13 23 3 30 9 30 26 0 16 11 27 41 40 129 57 91 236 -50 236
-36 0 -37 2 -46 63 -8 54 -1 58 42 24 19 -15 38 -21 61 -19 35 4 39 16 26 95
-6 34 -9 37 -40 37 -25 0 -34 -4 -34 -16 0 -11 -5 -14 -16 -10 -9 3 -27 9 -40
12 -17 4 -24 13 -24 30 0 18 -5 24 -23 24 -13 0 -27 -3 -30 -7z"/>
<path d="M12630 9505 c-67 -21 -110 -63 -160 -154 -25 -44 -48 -81 -51 -81 -4
0 -36 16 -71 36 -116 66 -176 78 -258 49 -23 -8 -59 -28 -80 -45 -66 -52 -118
-190 -72 -190 68 -1 186 -100 227 -192 48 -107 30 -242 -43 -328 -15 -17 -11
-4 13 43 19 38 35 81 35 95 -1 27 -1 27 -36 -13 -114 -129 -116 -295 -5 -403
23 -22 63 -47 88 -56 65 -22 168 -20 218 4 76 36 107 74 154 189 l37 91 80
-50 c43 -28 97 -55 119 -61 86 -24 186 9 247 81 64 74 75 163 31 251 -41 79
-88 107 -256 148 -75 18 -137 37 -137 41 0 4 40 58 89 119 50 62 95 128 102
148 18 56 7 144 -24 192 -51 78 -157 115 -247 86z"/>
<path d="M11932 9044 c24 -89 70 -138 171 -183 76 -34 75 -36 40 48 -30 76
-119 153 -191 167 l-31 6 11 -38z"/>
<path d="M4175 7545 c-14 -13 -25 -30 -25 -37 0 -16 108 -118 126 -118 9 0 14
11 14 33 0 17 3 48 6 67 11 71 -69 108 -121 55z"/>
<path d="M17396 7565 c-3 -9 -6 -72 -6 -140 0 -100 3 -125 16 -136 11 -9 20
-10 32 -2 15 9 17 30 17 149 l0 139 -26 3 c-17 2 -29 -3 -33 -13z"/>
<path d="M17990 7430 c0 -161 2 -166 51 -140 17 10 19 22 19 138 0 136 -5 152
-47 152 -23 0 -23 0 -23 -150z"/>
<path d="M17850 6845 l0 -95 45 0 c95 0 144 104 79 165 -21 20 -38 25 -75 25
l-49 0 0 -95z"/>
<path d="M11690 5917 c-33 -16 -60 -72 -60 -125 l0 -43 34 35 c29 32 39 36 81
36 31 0 55 -6 67 -17 24 -22 23 -3 -2 46 -20 39 -63 81 -84 81 -6 0 -22 -6
-36 -13z"/>
<path d="M11358 5835 c-40 -22 -62 -90 -55 -170 4 -36 12 -75 19 -87 11 -21
13 -19 19 32 6 59 22 97 48 117 23 17 82 16 109 -3 21 -15 22 -14 12 12 -17
42 -49 83 -80 99 -35 18 -38 18 -72 0z"/>
<path d="M11704 5729 c-17 -5 -38 -17 -47 -27 -15 -16 -14 -22 7 -73 12 -31
36 -80 53 -109 l31 -53 27 54 c15 30 36 66 47 82 47 67 -30 149 -118 126z"/>
<path d="M18344 5089 c-95 -28 -120 -135 -60 -250 l24 -47 -25 -24 c-85 -79
-91 -212 -12 -283 33 -30 46 -35 88 -35 32 0 63 8 94 24 l46 25 16 -25 c13
-20 24 -24 65 -24 28 0 50 3 50 6 0 3 -16 32 -36 64 l-36 59 38 47 c37 45 38
47 19 61 -46 34 -51 34 -77 -3 l-25 -35 -42 65 c-22 36 -41 69 -41 74 0 5 12
19 26 33 61 57 86 160 51 213 -34 51 -102 74 -163 55z m62 -444 c25 -42 45
-77 43 -79 -56 -43 -81 -45 -114 -11 -31 30 -32 74 -3 126 12 22 23 39 24 39
1 0 24 -34 50 -75z"/>
<path d="M17077 4083 c-4 -3 -7 -42 -7 -85 l0 -78 495 0 496 0 -3 83 -3 82
-486 3 c-267 1 -489 -1 -492 -5z"/>
<path d="M21192 5065 c-46 -20 -68 -75 -52 -128 9 -31 19 -42 53 -57 23 -10
63 -21 89 -24 63 -9 95 -35 79 -63 -23 -44 -99 -37 -152 13 -19 18 -35 25 -55
22 -28 -3 -29 -4 -29 -63 l0 -60 33 -3 c24 -2 32 1 32 12 0 20 0 20 39 0 23
-12 50 -15 93 -12 53 4 65 9 89 36 32 36 37 77 15 121 -18 33 -45 46 -128 61
-72 13 -88 23 -88 56 0 51 81 60 133 14 20 -17 46 -30 61 -30 25 0 26 2 26 55
0 54 0 55 -30 55 -16 0 -30 -4 -30 -9 0 -6 -12 -3 -27 5 -35 18 -108 17 -151
-1z"/>
<path d="M22325 5063 c-69 -36 -114 -105 -115 -173 0 -49 37 -118 83 -154 31
-25 49 -31 100 -34 79 -5 141 25 174 84 31 54 29 64 -12 64 -28 0 -37 -5 -45
-24 -14 -37 -49 -56 -103 -56 -42 0 -54 5 -83 34 -30 30 -34 40 -34 86 0 46 4
56 34 86 28 28 41 34 78 34 49 0 103 -28 113 -59 5 -16 15 -21 41 -21 l34 0 0
70 0 70 -35 0 c-19 0 -35 -4 -35 -9 0 -6 -16 -3 -35 5 -45 18 -122 17 -160 -3z"/>
<path d="M21482 5043 c2 -20 9 -29 26 -31 21 -3 22 -7 22 -122 0 -115 -1 -119
-22 -122 -18 -2 -23 -10 -23 -33 l0 -30 85 0 85 0 3 33 c3 30 1 32 -27 32 -24
0 -31 4 -31 20 0 17 7 20 50 20 122 0 196 87 156 183 -26 63 -62 77 -204 77
l-123 0 3 -27z m250 -63 c23 -29 23 -41 -3 -74 -18 -22 -28 -26 -75 -26 l-54
0 0 66 0 66 57 -4 c43 -4 61 -10 75 -28z"/>
<path d="M21850 5040 c0 -25 4 -30 25 -30 l25 0 0 -120 0 -120 -26 0 c-23 0
-25 -3 -22 -32 l3 -33 155 0 155 0 3 63 3 62 -36 0 c-32 0 -35 -2 -35 -30 l0
-30 -65 0 -65 0 0 40 0 40 60 0 60 0 0 35 0 35 -60 0 -60 0 0 45 0 45 65 0 65
0 0 -30 c0 -28 3 -30 35 -30 l35 0 0 60 0 60 -160 0 -160 0 0 -30z"/>
<path d="M22640 5040 c0 -25 4 -30 25 -30 l25 0 0 -120 0 -120 -26 0 c-23 0
-25 -3 -22 -32 l3 -33 78 -3 77 -3 0 36 c0 28 -4 35 -20 35 -19 0 -20 7 -20
120 0 113 1 120 20 120 16 0 20 7 20 30 l0 30 -80 0 -80 0 0 -30z"/>
<path d="M22930 5040 c0 -26 4 -30 26 -30 30 0 33 9 -33 -134 -35 -77 -53
-106 -68 -108 -15 -2 -20 -11 -20 -33 l0 -30 78 -3 77 -3 0 36 c0 28 -4 35
-19 35 -14 0 -18 5 -14 20 5 18 14 20 88 20 66 0 84 -3 89 -16 9 -22 8 -22
-16 -26 -18 -2 -23 -10 -23 -33 l0 -30 83 -3 82 -3 0 35 c0 28 -4 35 -22 38
-17 2 -35 33 -88 148 l-67 145 -76 3 -77 3 0 -31z"/>
<path d="M23290 5040 c0 -23 4 -30 20 -30 19 0 20 -7 20 -120 0 -113 -1 -120
-20 -120 -16 0 -20 -7 -20 -35 l0 -35 150 0 150 0 0 65 0 65 -30 0 c-27 0 -30
-3 -30 -30 l0 -30 -65 0 -65 0 0 120 0 120 35 0 c32 0 35 2 35 30 l0 30 -90 0
-90 0 0 -30z"/>
<path d="M23800 5040 c0 -23 4 -30 20 -30 19 0 20 -7 20 -120 0 -113 -1 -120
-20 -120 -16 0 -20 -7 -20 -35 l0 -35 80 0 80 0 0 35 c0 31 -3 35 -25 35 -25
0 -25 1 -25 78 l0 77 39 -61 c22 -34 44 -71 50 -83 23 -42 53 -26 103 57 l48
77 0 -72 c0 -66 -2 -73 -20 -73 -16 0 -20 -7 -20 -35 l0 -36 78 3 77 3 3 33
c3 29 1 32 -22 32 l-26 0 0 120 0 120 25 0 c21 0 25 5 25 30 0 29 -1 30 -48
30 l-49 0 -68 -106 -68 -107 -19 23 c-10 12 -41 60 -70 106 l-53 84 -47 0
c-47 0 -48 -1 -48 -30z"/>
<path d="M24320 5040 c0 -25 4 -30 25 -30 l25 0 0 -120 0 -120 -26 0 c-23 0
-25 -3 -22 -32 l3 -33 155 0 155 0 3 63 3 62 -36 0 c-32 0 -35 -2 -35 -30 l0
-30 -65 0 -65 0 0 40 0 40 60 0 60 0 0 35 0 35 -60 0 -60 0 0 45 0 45 65 0 65
0 0 -30 c0 -28 3 -30 35 -30 l35 0 0 60 0 60 -160 0 -160 0 0 -30z"/>
<path d="M24690 5040 c0 -25 4 -30 25 -30 l25 0 0 -120 0 -120 -26 0 c-23 0
-25 -3 -22 -32 l3 -33 78 -3 77 -3 0 36 c0 28 -4 35 -20 35 -18 0 -20 7 -20
80 0 44 2 80 4 80 2 0 47 -52 101 -115 74 -88 102 -115 121 -115 l24 0 0 155
0 155 25 0 c21 0 25 5 25 30 l0 30 -80 0 -80 0 0 -30 c0 -23 4 -30 20 -30 19
0 20 -7 20 -91 l0 -91 -101 121 -101 121 -49 0 c-48 0 -49 -1 -49 -30z"/>
<path d="M25132 5043 c2 -20 9 -29 26 -31 21 -3 22 -8 22 -96 0 -110 23 -168
80 -198 41 -22 120 -24 158 -4 68 35 92 93 92 219 0 70 2 77 20 77 16 0 20 7
20 30 l0 30 -80 0 -80 0 0 -30 c0 -25 4 -30 25 -30 25 0 25 -1 25 -77 0 -128
-47 -189 -125 -163 -50 17 -65 52 -65 154 0 80 1 85 23 88 16 2 23 11 25 31
l3 27 -86 0 -86 0 3 -27z"/>
<path d="M19290 4120 l0 -890 4045 0 4045 0 0 890 0 890 -710 0 c-703 0 -710
0 -710 -20 0 -20 7 -20 690 -20 l690 0 0 -850 0 -850 -4000 0 -4000 0 0 850 0
850 690 0 c683 0 690 0 690 20 0 20 -7 20 -715 20 l-715 0 0 -890z"/>
<path d="M19390 4120 l0 -790 3950 0 3950 0 0 790 0 790 -665 0 c-437 0 -665
-3 -665 -10 0 -7 223 -10 650 -10 l650 0 0 -770 0 -770 -3920 0 -3920 0 0 770
0 770 650 0 c427 0 650 3 650 10 0 7 -228 10 -665 10 l-665 0 0 -790z"/>
<path d="M20248 4569 c-15 -8 -18 -24 -18 -84 0 -64 3 -76 20 -85 14 -8 26 -8
40 0 23 12 27 50 5 50 -8 0 -15 -4 -15 -10 0 -5 -4 -10 -10 -10 -5 0 -10 25
-10 55 0 30 5 55 10 55 6 0 10 -4 10 -10 0 -5 7 -10 15 -10 8 0 15 5 15 10 0
6 7 10 15 10 12 0 15 -15 15 -76 0 -56 3 -75 13 -72 7 3 13 30 15 74 2 47 8
71 18 77 29 16 13 28 -38 26 -29 -1 -60 1 -68 5 -8 3 -23 1 -32 -5z"/>
<path d="M24116 4565 c-22 -23 -23 -137 0 -159 8 -9 19 -16 22 -16 16 0 52 32
52 46 0 16 -26 19 -35 4 -15 -24 -25 -6 -25 45 0 30 2 55 5 55 3 0 15 -6 26
-12 17 -10 23 -10 26 0 12 31 22 6 25 -60 2 -46 7 -73 16 -76 9 -3 12 16 12
72 0 61 3 76 15 76 8 0 15 7 15 16 0 12 -11 15 -52 13 -29 -1 -60 2 -69 5 -10
4 -23 0 -33 -9z"/>
<path d="M19742 4483 c2 -58 7 -88 16 -91 8 -2 12 8 12 32 0 24 5 36 14 36 7
0 20 7 27 17 12 14 15 11 19 -33 6 -63 33 -69 39 -9 l3 40 12 -40 c7 -23 18
-40 26 -40 9 0 13 7 11 15 -3 8 -5 47 -5 85 l-1 70 -42 3 c-36 3 -43 0 -43
-15 -1 -17 -1 -17 -11 0 -6 11 -22 17 -45 17 l-35 0 3 -87z"/>
<path d="M19730 4320 c0 -7 507 -10 1501 -10 997 0 1498 3 1494 10 -4 7 -515
10 -1501 10 -989 0 -1494 -3 -1494 -10z"/>
<path d="M23605 4320 c-4 -7 497 -10 1494 -10 994 0 1501 3 1501 10 0 7 -505
10 -1494 10 -986 0 -1497 -3 -1501 -10z"/>
<path d="M19730 4170 c0 -7 505 -10 1494 -10 986 0 1497 3 1501 10 4 7 -497
10 -1494 10 -994 0 -1501 -3 -1501 -10z"/>
<path d="M23605 4170 c4 -7 515 -10 1501 -10 989 0 1494 3 1494 10 0 7 -507
10 -1501 10 -997 0 -1498 -3 -1494 -10z"/>
<path d="M19730 4030 c0 -7 250 -10 730 -10 480 0 730 3 730 10 0 7 -250 10
-730 10 -480 0 -730 -3 -730 -10z"/>
<path d="M23605 4030 c-4 -7 240 -10 724 -10 481 0 731 3 731 10 0 7 -248 10
-724 10 -473 0 -727 -3 -731 -10z"/>
<path d="M19747 3983 c-4 -3 -7 -44 -7 -90 0 -67 3 -83 15 -83 10 0 15 10 15
30 0 19 5 30 14 30 8 0 22 10 30 22 15 22 16 20 16 -30 0 -45 3 -52 20 -52 16
0 20 7 21 38 l2 37 10 -37 c7 -26 16 -38 28 -38 17 0 17 3 4 40 -8 24 -10 42
-4 45 5 4 9 22 9 41 0 28 -5 36 -26 44 -38 15 -55 12 -61 -9 -5 -19 -5 -19
-24 0 -19 19 -50 25 -62 12z"/>
<path d="M20248 3979 c-15 -8 -18 -24 -18 -84 0 -82 13 -101 58 -84 25 9 31
49 7 49 -8 0 -15 -4 -15 -10 0 -5 -4 -10 -10 -10 -5 0 -10 25 -10 55 0 30 5
55 10 55 6 0 10 -4 10 -10 0 -5 7 -10 15 -10 8 0 15 7 15 15 0 8 7 15 15 15
12 0 15 -15 15 -75 0 -60 3 -75 15 -75 12 0 15 15 15 75 0 62 3 75 16 75 9 0
14 6 12 13 -6 15 -88 23 -88 7 0 -7 -6 -8 -19 0 -23 12 -22 12 -43 -1z"/>
<path d="M24116 3974 c-17 -16 -23 -129 -8 -150 15 -22 42 -24 62 -4 24 24 26
40 6 40 -8 0 -18 -4 -21 -10 -15 -24 -25 -6 -25 45 0 51 10 69 25 45 10 -15
35 -12 35 5 0 8 5 15 10 15 6 0 10 -32 10 -75 0 -60 3 -75 15 -75 12 0 15 14
15 70 0 54 4 71 16 78 9 5 14 14 10 21 -9 14 -73 14 -82 0 -4 -8 -9 -8 -17 0
-15 15 -33 14 -51 -5z"/>
<path d="M19735 3720 c4 -7 513 -10 1495 -10 982 0 1491 3 1495 10 4 7 -497
10 -1495 10 -998 0 -1499 -3 -1495 -10z"/>
<path d="M23605 3720 c4 -7 515 -10 1501 -10 989 0 1494 3 1494 10 0 7 -507
10 -1501 10 -997 0 -1498 -3 -1494 -10z"/>
<path d="M19730 3580 c0 -7 505 -10 1495 -10 990 0 1495 3 1495 10 0 7 -505
10 -1495 10 -990 0 -1495 -3 -1495 -10z"/>
<path d="M23610 3580 c0 -7 505 -10 1495 -10 990 0 1495 3 1495 10 0 7 -505
10 -1495 10 -990 0 -1495 -3 -1495 -10z"/>
<path d="M19730 3440 c0 -7 250 -10 731 -10 484 0 728 3 724 10 -4 7 -258 10
-731 10 -476 0 -724 -3 -724 -10z"/>
<path d="M23605 3440 c-4 -7 240 -10 724 -10 481 0 731 3 731 10 0 7 -248 10
-724 10 -473 0 -727 -3 -731 -10z"/>
<path d="M10870 819 c-20 -4 -48 -22 -67 -42 -88 -97 -24 -267 101 -267 83 0
136 62 136 160 0 107 -71 170 -170 149z"/>
<path d="M15412 819 c-64 -13 -102 -71 -102 -155 0 -97 66 -162 154 -152 105
12 157 128 105 235 -29 60 -87 87 -157 72z"/>
<path d="M18940 822 c-63 -10 -110 -76 -110 -157 0 -55 18 -93 62 -130 28 -24
39 -27 85 -23 110 9 165 122 114 235 -26 55 -85 85 -151 75z"/>
<path d="M12182 853 l-61 -138 65 -3 c36 -2 91 -2 122 0 l58 3 -61 138 -62
137 -61 -137z"/>
<path d="M7740 804 l0 -277 83 6 c117 9 199 51 244 126 56 94 53 226 -7 309
-46 64 -167 112 -281 112 l-39 0 0 -276z"/>
<path d="M8411 812 c-19 -10 -43 -34 -53 -53 l-18 -34 121 -3 c67 -1 124 -1
126 2 7 6 -23 59 -44 78 -30 27 -92 32 -132 10z"/>
<path d="M9525 819 c-17 -5 -41 -18 -54 -30 -101 -94 -38 -279 94 -279 83 0
135 63 135 162 0 106 -80 173 -175 147z"/>
<path d="M14125 816 c-30 -13 -54 -42 -68 -78 -6 -17 4 -18 118 -18 l125 0
-13 32 c-25 61 -102 92 -162 64z"/>
<path d="M14595 816 c-30 -13 -54 -42 -68 -78 -6 -17 4 -18 118 -18 l125 0
-13 32 c-25 61 -102 92 -162 64z"/>
<path d="M15920 802 c-103 -56 -108 -191 -9 -264 33 -25 103 -27 146 -5 50 27
78 74 78 134 0 112 -120 187 -215 135z"/>
<path d="M17850 802 c-19 -9 -45 -33 -58 -52 -20 -29 -23 -45 -20 -93 4 -49 9
-62 38 -92 64 -66 154 -65 216 1 56 59 55 151 -4 207 -51 49 -112 59 -172 29z"/>
<path d="M18402 819 c-71 -15 -122 -100 -107 -178 16 -83 67 -131 140 -131 82
0 135 63 135 160 0 106 -71 170 -168 149z"/>
<path d="M20140 798 c-55 -38 -75 -73 -75 -133 0 -159 207 -205 281 -63 66
127 -90 275 -206 196z"/>
</g>
</svg>
